<svg width="272" height="222" viewBox="0 0 272 222" fill="none" xmlns="http://www.w3.org/2000/svg">
<rect x="4.5" y="148.549" width="44" height="44" rx="22" fill="#FBBF24"/>
<path d="M29 164.924V172.424C29 172.59 28.9342 172.749 28.8169 172.866C28.6997 172.983 28.5408 173.049 28.375 173.049H25.25C25.0842 173.049 24.9253 172.983 24.8081 172.866C24.6908 172.749 24.625 172.59 24.625 172.424V164.924C24.625 164.759 24.6908 164.6 24.8081 164.482C24.9253 164.365 25.0842 164.299 25.25 164.299H28.375C28.5408 164.299 28.6997 164.365 28.8169 164.482C28.9342 164.6 29 164.759 29 164.924ZM34 164.299H30.875C30.7092 164.299 30.5503 164.365 30.4331 164.482C30.3158 164.6 30.25 164.759 30.25 164.924V168.987C30.25 169.07 30.2829 169.149 30.3415 169.208C30.4001 169.266 30.4796 169.299 30.5625 169.299H34.3125C34.3954 169.299 34.4749 169.266 34.5335 169.208C34.5921 169.149 34.625 169.07 34.625 168.987V164.924C34.625 164.759 34.5592 164.6 34.4419 164.482C34.3247 164.365 34.1658 164.299 34 164.299ZM34.3125 170.549H30.5625C30.4796 170.549 30.4001 170.582 30.3415 170.641C30.2829 170.699 30.25 170.779 30.25 170.862V174.299C30.25 174.631 30.3817 174.949 30.6161 175.183C30.8505 175.418 31.1685 175.549 31.5 175.549H33.375C33.7065 175.549 34.0245 175.418 34.2589 175.183C34.4933 174.949 34.625 174.631 34.625 174.299V170.862C34.625 170.779 34.5921 170.699 34.5335 170.641C34.4749 170.582 34.3954 170.549 34.3125 170.549ZM22.75 164.299H19.625C19.4592 164.299 19.3003 164.365 19.1831 164.482C19.0658 164.6 19 164.759 19 164.924V168.987C19 169.07 19.0329 169.149 19.0915 169.208C19.1501 169.266 19.2296 169.299 19.3125 169.299H23.0625C23.1454 169.299 23.2249 169.266 23.2835 169.208C23.3421 169.149 23.375 169.07 23.375 168.987V164.924C23.375 164.759 23.3092 164.6 23.1919 164.482C23.0747 164.365 22.9158 164.299 22.75 164.299ZM23.0625 170.549H19.3125C19.2296 170.549 19.1501 170.582 19.0915 170.641C19.0329 170.699 19 170.779 19 170.862V176.799C19 177.131 19.1317 177.449 19.3661 177.683C19.6005 177.918 19.9185 178.049 20.25 178.049H22.125C22.4565 178.049 22.7745 177.918 23.0089 177.683C23.2433 177.449 23.375 177.131 23.375 176.799V170.862C23.375 170.779 23.3421 170.699 23.2835 170.641C23.2249 170.582 23.1454 170.549 23.0625 170.549Z" fill="white"/>
<path d="M11.08 209.549V200.789H12.784V209.549H11.08ZM12.544 209.549V208.049H16.324V209.549H12.544ZM20.1865 209.777C19.6265 209.777 19.1345 209.681 18.7105 209.489C18.2945 209.297 17.9465 209.041 17.6665 208.721C17.3945 208.393 17.1865 208.029 17.0425 207.629C16.9065 207.229 16.8385 206.821 16.8385 206.405V206.177C16.8385 205.745 16.9065 205.329 17.0425 204.929C17.1865 204.521 17.3945 204.161 17.6665 203.849C17.9465 203.529 18.2905 203.277 18.6985 203.093C19.1065 202.901 19.5785 202.805 20.1145 202.805C20.8185 202.805 21.4065 202.961 21.8785 203.273C22.3585 203.577 22.7185 203.981 22.9585 204.485C23.1985 204.981 23.3185 205.517 23.3185 206.093V206.693H17.5465V205.673H22.2745L21.7585 206.177C21.7585 205.761 21.6985 205.405 21.5785 205.109C21.4585 204.813 21.2745 204.585 21.0265 204.425C20.7865 204.265 20.4825 204.185 20.1145 204.185C19.7465 204.185 19.4345 204.269 19.1785 204.437C18.9225 204.605 18.7265 204.849 18.5905 205.169C18.4625 205.481 18.3985 205.857 18.3985 206.297C18.3985 206.705 18.4625 207.069 18.5905 207.389C18.7185 207.701 18.9145 207.949 19.1785 208.133C19.4425 208.309 19.7785 208.397 20.1865 208.397C20.5945 208.397 20.9265 208.317 21.1825 208.157C21.4385 207.989 21.6025 207.785 21.6745 207.545H23.2105C23.1145 207.993 22.9305 208.385 22.6585 208.721C22.3865 209.057 22.0385 209.317 21.6145 209.501C21.1985 209.685 20.7225 209.777 20.1865 209.777ZM28.4199 209.549V207.617H28.1439V205.469C28.1439 205.093 28.0519 204.813 27.8679 204.629C27.6839 204.445 27.3999 204.353 27.0159 204.353C26.8159 204.353 26.5759 204.357 26.2959 204.365C26.0159 204.373 25.7319 204.385 25.4439 204.401C25.1639 204.409 24.9119 204.421 24.6879 204.437V203.021C24.8719 203.005 25.0799 202.989 25.3119 202.973C25.5439 202.957 25.7799 202.949 26.0199 202.949C26.2679 202.941 26.4999 202.937 26.7159 202.937C27.3879 202.937 27.9439 203.025 28.3839 203.201C28.8319 203.377 29.1679 203.653 29.3919 204.029C29.6239 204.405 29.7399 204.897 29.7399 205.505V209.549H28.4199ZM26.3199 209.717C25.8479 209.717 25.4319 209.633 25.0719 209.465C24.7199 209.297 24.4439 209.057 24.2439 208.745C24.0519 208.433 23.9559 208.057 23.9559 207.617C23.9559 207.137 24.0719 206.745 24.3039 206.441C24.5439 206.137 24.8759 205.909 25.2999 205.757C25.7319 205.605 26.2359 205.529 26.8119 205.529H28.3239V206.525H26.7879C26.4039 206.525 26.1079 206.621 25.8999 206.813C25.6999 206.997 25.5999 207.237 25.5999 207.533C25.5999 207.829 25.6999 208.069 25.8999 208.253C26.1079 208.437 26.4039 208.529 26.7879 208.529C27.0199 208.529 27.2319 208.489 27.4239 208.409C27.6239 208.321 27.7879 208.177 27.9159 207.977C28.0519 207.769 28.1279 207.489 28.1439 207.137L28.5519 207.605C28.5119 208.061 28.3999 208.445 28.2159 208.757C28.0399 209.069 27.7919 209.309 27.4719 209.477C27.1599 209.637 26.7759 209.717 26.3199 209.717ZM31.2866 209.549V203.033H32.6066V205.793H32.5706C32.5706 204.857 32.7706 204.149 33.1706 203.669C33.5706 203.189 34.1586 202.949 34.9346 202.949H35.1746V204.401H34.7186C34.1586 204.401 33.7226 204.553 33.4106 204.857C33.1066 205.153 32.9546 205.585 32.9546 206.153V209.549H31.2866ZM36.0505 209.549V203.033H37.3705V205.829H37.2505C37.2505 205.165 37.3385 204.613 37.5145 204.173C37.6905 203.725 37.9505 203.389 38.2945 203.165C38.6465 202.941 39.0825 202.829 39.6025 202.829H39.6745C40.4505 202.829 41.0385 203.081 41.4385 203.585C41.8385 204.081 42.0385 204.825 42.0385 205.817V209.549H40.3705V205.673C40.3705 205.273 40.2545 204.949 40.0225 204.701C39.7985 204.453 39.4865 204.329 39.0865 204.329C38.6785 204.329 38.3465 204.457 38.0905 204.713C37.8425 204.961 37.7185 205.297 37.7185 205.721V209.549H36.0505Z" fill="#111827"/>
<rect x="70.75" y="147.799" width="45.5" height="45.5" rx="22.75" stroke="#D1D5DB" stroke-width="1.5"/>
<path d="M92.2578 167.612C92.2351 167.61 92.2125 167.616 92.1924 167.626C92.1722 167.637 92.1544 167.653 92.1426 167.672C92.1309 167.692 92.125 167.714 92.125 167.737V173.362L92.1299 173.395C92.1329 173.406 92.1367 173.417 92.1426 173.426C92.1544 173.446 92.1722 173.462 92.1924 173.472C92.2125 173.483 92.2351 173.488 92.2578 173.487C92.2805 173.485 92.3026 173.477 92.3213 173.464L96.3838 170.652L96.4229 170.607C96.4322 170.589 96.4375 170.569 96.4375 170.549C96.4375 170.529 96.4322 170.51 96.4229 170.492C96.4135 170.474 96.4003 170.458 96.3838 170.447L92.3213 167.634C92.3026 167.621 92.2805 167.613 92.2578 167.612ZM102.119 170.869C102.06 172.463 101.56 174.012 100.672 175.341C99.7242 176.76 98.3768 177.865 96.8008 178.518C95.2248 179.171 93.4905 179.341 91.8174 179.008C90.1443 178.676 88.6076 177.854 87.4014 176.648C86.1951 175.442 85.3738 173.905 85.041 172.232C84.7082 170.559 84.8784 168.825 85.5312 167.249C86.1841 165.673 87.2896 164.325 88.708 163.377C90.1264 162.43 91.7942 161.924 93.5 161.924H93.501L93.9277 161.935C96.0587 162.043 98.0808 162.937 99.5967 164.453C101.213 166.069 102.122 168.262 102.125 170.548V170.549L102.119 170.869Z" fill="white" stroke="#6B7280"/>
<path d="M71.044 208.361V206.885H72.748C73.092 206.885 73.38 206.817 73.612 206.681C73.852 206.545 74.032 206.357 74.152 206.117C74.28 205.877 74.344 205.601 74.344 205.289C74.344 204.977 74.28 204.701 74.152 204.461C74.032 204.221 73.852 204.037 73.612 203.909C73.38 203.773 73.092 203.705 72.748 203.705H71.044V202.229H72.604C73.34 202.229 73.964 202.349 74.476 202.589C74.996 202.829 75.392 203.173 75.664 203.621C75.936 204.061 76.072 204.585 76.072 205.193V205.385C76.072 205.993 75.936 206.521 75.664 206.969C75.392 207.409 74.996 207.753 74.476 208.001C73.964 208.241 73.34 208.361 72.604 208.361H71.044ZM69.58 211.049V202.229H71.284V211.049H69.58ZM77.1533 211.049V204.533H78.4733V207.293H78.4373C78.4373 206.357 78.6373 205.649 79.0373 205.169C79.4373 204.689 80.0253 204.449 80.8013 204.449H81.0413V205.901H80.5853C80.0253 205.901 79.5893 206.053 79.2773 206.357C78.9733 206.653 78.8213 207.085 78.8213 207.653V211.049H77.1533ZM85.8301 211.049V209.117H85.5541V206.969C85.5541 206.593 85.4621 206.313 85.2781 206.129C85.0941 205.945 84.8101 205.853 84.4261 205.853C84.2261 205.853 83.9861 205.857 83.7061 205.865C83.4261 205.873 83.1421 205.885 82.8541 205.901C82.5741 205.909 82.3221 205.921 82.0981 205.937V204.521C82.2821 204.505 82.4901 204.489 82.7221 204.473C82.9541 204.457 83.1901 204.449 83.4301 204.449C83.6781 204.441 83.9101 204.437 84.1261 204.437C84.7981 204.437 85.3541 204.525 85.7941 204.701C86.2421 204.877 86.5781 205.153 86.8021 205.529C87.0341 205.905 87.1501 206.397 87.1501 207.005V211.049H85.8301ZM83.7301 211.217C83.2581 211.217 82.8421 211.133 82.4821 210.965C82.1301 210.797 81.8541 210.557 81.6541 210.245C81.4621 209.933 81.3661 209.557 81.3661 209.117C81.3661 208.637 81.4821 208.245 81.7141 207.941C81.9541 207.637 82.2861 207.409 82.7101 207.257C83.1421 207.105 83.6461 207.029 84.2221 207.029H85.7341V208.025H84.1981C83.8141 208.025 83.5181 208.121 83.3101 208.313C83.1101 208.497 83.0101 208.737 83.0101 209.033C83.0101 209.329 83.1101 209.569 83.3101 209.753C83.5181 209.937 83.8141 210.029 84.1981 210.029C84.4301 210.029 84.6421 209.989 84.8341 209.909C85.0341 209.821 85.1981 209.677 85.3261 209.477C85.4621 209.269 85.5381 208.989 85.5541 208.637L85.9621 209.105C85.9221 209.561 85.8101 209.945 85.6261 210.257C85.4501 210.569 85.2021 210.809 84.8821 210.977C84.5701 211.137 84.1861 211.217 83.7301 211.217ZM91.5888 211.277C91.0208 211.277 90.5288 211.181 90.1128 210.989C89.7048 210.797 89.3608 210.541 89.0808 210.221C88.8088 209.901 88.6048 209.541 88.4688 209.141C88.3328 208.741 88.2648 208.333 88.2648 207.917V207.689C88.2648 207.249 88.3328 206.829 88.4688 206.429C88.6128 206.021 88.8248 205.661 89.1048 205.349C89.3848 205.029 89.7288 204.777 90.1368 204.593C90.5528 204.401 91.0328 204.305 91.5768 204.305C92.1448 204.305 92.6528 204.417 93.1008 204.641C93.5488 204.857 93.9048 205.161 94.1688 205.553C94.4408 205.945 94.5928 206.401 94.6248 206.921H93.0048C92.9648 206.585 92.8208 206.305 92.5728 206.081C92.3328 205.857 92.0008 205.745 91.5768 205.745C91.2088 205.745 90.9008 205.833 90.6528 206.009C90.4128 206.185 90.2328 206.429 90.1128 206.741C89.9928 207.045 89.9328 207.397 89.9328 207.797C89.9328 208.181 89.9888 208.529 90.1008 208.841C90.2208 209.153 90.4008 209.397 90.6408 209.573C90.8888 209.749 91.2048 209.837 91.5888 209.837C91.8768 209.837 92.1248 209.785 92.3328 209.681C92.5408 209.577 92.7048 209.433 92.8248 209.249C92.9528 209.065 93.0328 208.857 93.0648 208.625H94.6848C94.6528 209.153 94.4968 209.617 94.2168 210.017C93.9448 210.409 93.5808 210.717 93.1248 210.941C92.6768 211.165 92.1648 211.277 91.5888 211.277ZM98.613 211.133C98.013 211.133 97.517 211.057 97.125 210.905C96.741 210.745 96.453 210.481 96.261 210.113C96.069 209.737 95.973 209.233 95.973 208.601L95.985 202.697H97.545L97.533 208.709C97.533 209.029 97.617 209.277 97.785 209.453C97.961 209.621 98.209 209.705 98.529 209.705H99.549V211.133H98.613ZM94.941 205.757V204.533H99.549V205.757H94.941ZM101.021 211.049V204.533H102.689V211.049H101.021ZM100.109 205.781V204.533H102.689V205.781H100.109ZM101.633 203.753C101.305 203.753 101.061 203.669 100.901 203.501C100.749 203.325 100.673 203.109 100.673 202.853C100.673 202.581 100.749 202.361 100.901 202.193C101.061 202.025 101.305 201.941 101.633 201.941C101.961 201.941 102.201 202.025 102.353 202.193C102.505 202.361 102.581 202.581 102.581 202.853C102.581 203.109 102.505 203.325 102.353 203.501C102.201 203.669 101.961 203.753 101.633 203.753ZM107.263 211.277C106.695 211.277 106.203 211.181 105.787 210.989C105.379 210.797 105.035 210.541 104.755 210.221C104.483 209.901 104.279 209.541 104.143 209.141C104.007 208.741 103.939 208.333 103.939 207.917V207.689C103.939 207.249 104.007 206.829 104.143 206.429C104.287 206.021 104.499 205.661 104.779 205.349C105.059 205.029 105.403 204.777 105.811 204.593C106.227 204.401 106.707 204.305 107.251 204.305C107.819 204.305 108.327 204.417 108.775 204.641C109.223 204.857 109.579 205.161 109.843 205.553C110.115 205.945 110.267 206.401 110.299 206.921H108.679C108.639 206.585 108.495 206.305 108.247 206.081C108.007 205.857 107.675 205.745 107.251 205.745C106.883 205.745 106.575 205.833 106.327 206.009C106.087 206.185 105.907 206.429 105.787 206.741C105.667 207.045 105.607 207.397 105.607 207.797C105.607 208.181 105.663 208.529 105.775 208.841C105.895 209.153 106.075 209.397 106.315 209.573C106.563 209.749 106.879 209.837 107.263 209.837C107.551 209.837 107.799 209.785 108.007 209.681C108.215 209.577 108.379 209.433 108.499 209.249C108.627 209.065 108.707 208.857 108.739 208.625H110.359C110.327 209.153 110.171 209.617 109.891 210.017C109.619 210.409 109.255 210.717 108.799 210.941C108.351 211.165 107.839 211.277 107.263 211.277ZM114.372 211.277C113.811 211.277 113.319 211.181 112.895 210.989C112.479 210.797 112.131 210.541 111.851 210.221C111.579 209.893 111.371 209.529 111.227 209.129C111.091 208.729 111.023 208.321 111.023 207.905V207.677C111.023 207.245 111.091 206.829 111.227 206.429C111.371 206.021 111.579 205.661 111.851 205.349C112.131 205.029 112.475 204.777 112.883 204.593C113.291 204.401 113.763 204.305 114.299 204.305C115.003 204.305 115.591 204.461 116.064 204.773C116.543 205.077 116.903 205.481 117.144 205.985C117.383 206.481 117.503 207.017 117.503 207.593V208.193H111.731V207.173H116.459L115.943 207.677C115.943 207.261 115.883 206.905 115.763 206.609C115.643 206.313 115.459 206.085 115.211 205.925C114.971 205.765 114.667 205.685 114.299 205.685C113.931 205.685 113.619 205.769 113.363 205.937C113.107 206.105 112.911 206.349 112.775 206.669C112.647 206.981 112.583 207.357 112.583 207.797C112.583 208.205 112.647 208.569 112.775 208.889C112.903 209.201 113.099 209.449 113.363 209.633C113.627 209.809 113.964 209.897 114.372 209.897C114.78 209.897 115.112 209.817 115.368 209.657C115.623 209.489 115.787 209.285 115.859 209.045H117.395C117.299 209.493 117.115 209.885 116.843 210.221C116.571 210.557 116.223 210.817 115.799 211.001C115.383 211.185 114.908 211.277 114.372 211.277Z" fill="#111827"/>
<rect x="139.25" y="147.799" width="45.5" height="45.5" rx="22.75" stroke="#D1D5DB" stroke-width="1.5"/>
<path d="M168.875 163.174C169.339 163.174 169.784 163.359 170.112 163.687C170.44 164.015 170.625 164.46 170.625 164.924V176.174C170.625 176.638 170.44 177.083 170.112 177.412C169.784 177.74 169.339 177.924 168.875 177.924H155.125C154.661 177.924 154.216 177.74 153.888 177.412C153.56 177.083 153.375 176.638 153.375 176.174V164.924L153.384 164.751C153.424 164.351 153.601 163.974 153.888 163.687C154.216 163.359 154.661 163.174 155.125 163.174H168.875ZM163.188 166.076C163.159 166.091 163.137 166.118 163.127 166.149L160.63 174.89L160.627 174.899C160.622 174.915 160.62 174.932 160.622 174.949C160.624 174.965 160.629 174.981 160.637 174.996C160.645 175.01 160.655 175.023 160.668 175.034C160.681 175.044 160.696 175.052 160.712 175.056C160.728 175.061 160.745 175.062 160.762 175.06C160.778 175.058 160.794 175.053 160.809 175.044C160.823 175.036 160.836 175.025 160.846 175.012C160.856 174.999 160.863 174.984 160.867 174.968L160.87 174.958L163.366 166.218C163.375 166.187 163.372 166.153 163.355 166.125C163.339 166.096 163.313 166.075 163.281 166.066C163.25 166.057 163.216 166.06 163.188 166.076ZM158.893 168.55C158.86 168.546 158.826 168.555 158.8 168.575L156.3 170.45C156.284 170.461 156.272 170.476 156.264 170.494C156.255 170.511 156.25 170.53 156.25 170.549L156.264 170.605C156.272 170.622 156.284 170.637 156.3 170.649L158.8 172.524C158.826 172.544 158.86 172.553 158.893 172.548C158.925 172.544 158.955 172.526 158.975 172.5C158.994 172.473 159.004 172.44 158.999 172.407C158.994 172.374 158.977 172.345 158.95 172.325L157.116 170.95L156.583 170.549L157.116 170.149L158.95 168.774C158.977 168.754 158.994 168.725 158.999 168.692C159.004 168.659 158.994 168.626 158.975 168.599C158.955 168.573 158.925 168.555 158.893 168.55ZM165.062 168.567C165.048 168.575 165.035 168.586 165.025 168.599C165.016 168.612 165.008 168.627 165.004 168.643C165 168.659 164.999 168.676 165.001 168.692C165.003 168.708 165.009 168.724 165.018 168.738C165.026 168.752 165.037 168.764 165.05 168.774L166.884 170.149L167.417 170.549L166.884 170.95L165.05 172.325C165.023 172.345 165.006 172.374 165.001 172.407C164.996 172.44 165.006 172.473 165.025 172.5C165.045 172.526 165.075 172.544 165.107 172.548C165.14 172.553 165.174 172.544 165.2 172.524L167.7 170.649C167.716 170.637 167.728 170.622 167.736 170.605C167.745 170.588 167.75 170.569 167.75 170.549C167.75 170.53 167.745 170.511 167.736 170.494C167.728 170.476 167.716 170.461 167.7 170.45L165.2 168.575C165.187 168.565 165.172 168.557 165.156 168.553C165.14 168.549 165.124 168.548 165.107 168.55C165.091 168.553 165.076 168.559 165.062 168.567Z" fill="white" stroke="#6B7280"/>
<path d="M149.008 211.109V209.741H151.204C151.604 209.741 151.908 209.633 152.116 209.417C152.324 209.193 152.428 208.889 152.428 208.505C152.428 208.121 152.324 207.825 152.116 207.617C151.908 207.401 151.604 207.293 151.204 207.293H149.008V206.249H151.084C151.668 206.249 152.188 206.321 152.644 206.465C153.108 206.601 153.468 206.833 153.724 207.161C153.988 207.489 154.12 207.929 154.12 208.481V208.649C154.12 209.169 154.004 209.613 153.772 209.981C153.548 210.341 153.208 210.621 152.752 210.821C152.304 211.013 151.748 211.109 151.084 211.109H149.008ZM147.58 211.109V202.229H149.248V211.109H147.58ZM149.008 207.017V205.973H150.88C151.288 205.973 151.588 205.865 151.78 205.649C151.972 205.433 152.068 205.145 152.068 204.785C152.068 204.425 151.972 204.137 151.78 203.921C151.588 203.705 151.288 203.597 150.88 203.597H149.008V202.229H150.724C151.716 202.229 152.468 202.437 152.98 202.853C153.5 203.269 153.76 203.865 153.76 204.641V204.809C153.76 205.353 153.628 205.789 153.364 206.117C153.108 206.437 152.752 206.669 152.296 206.813C151.84 206.949 151.316 207.017 150.724 207.017H149.008ZM157.69 211.253C156.938 211.253 156.354 211.005 155.938 210.509C155.53 210.013 155.326 209.277 155.326 208.301V204.521H156.994V208.445C156.994 208.845 157.106 209.165 157.33 209.405C157.554 209.637 157.858 209.753 158.242 209.753C158.626 209.753 158.938 209.629 159.178 209.381C159.426 209.133 159.55 208.797 159.55 208.373V204.521H161.218V211.049H159.898V208.277H160.03C160.03 208.933 159.946 209.481 159.778 209.921C159.61 210.361 159.358 210.693 159.022 210.917C158.686 211.141 158.266 211.253 157.762 211.253H157.69ZM163.206 211.049V204.533H164.874V211.049H163.206ZM162.294 205.781V204.533H164.874V205.781H162.294ZM163.818 203.753C163.49 203.753 163.246 203.669 163.086 203.501C162.934 203.325 162.858 203.109 162.858 202.853C162.858 202.581 162.934 202.361 163.086 202.193C163.246 202.025 163.49 201.941 163.818 201.941C164.146 201.941 164.386 202.025 164.538 202.193C164.69 202.361 164.766 202.581 164.766 202.853C164.766 203.109 164.69 203.325 164.538 203.501C164.386 203.669 164.146 203.753 163.818 203.753ZM166.64 211.049V202.289H168.308V211.049H166.64ZM165.824 203.537V202.289H168.308V203.537H165.824ZM172.672 211.265C172.216 211.265 171.796 211.181 171.412 211.013C171.028 210.845 170.696 210.609 170.416 210.305C170.136 210.001 169.92 209.649 169.768 209.249C169.616 208.841 169.54 208.401 169.54 207.929V207.677C169.54 207.213 169.612 206.777 169.756 206.369C169.908 205.961 170.116 205.605 170.38 205.301C170.652 204.997 170.976 204.761 171.352 204.593C171.736 204.417 172.16 204.329 172.624 204.329C173.136 204.329 173.584 204.441 173.968 204.665C174.36 204.881 174.672 205.209 174.904 205.649C175.136 206.089 175.264 206.641 175.288 207.305L174.796 206.729V202.289H176.464V211.049H175.144V208.277H175.432C175.408 208.941 175.272 209.497 175.024 209.945C174.776 210.385 174.448 210.717 174.04 210.941C173.64 211.157 173.184 211.265 172.672 211.265ZM173.044 209.861C173.372 209.861 173.672 209.789 173.944 209.645C174.216 209.493 174.432 209.277 174.592 208.997C174.76 208.709 174.844 208.373 174.844 207.989V207.509C174.844 207.125 174.76 206.805 174.592 206.549C174.424 206.285 174.204 206.085 173.932 205.949C173.66 205.805 173.364 205.733 173.044 205.733C172.684 205.733 172.364 205.821 172.084 205.997C171.812 206.165 171.596 206.405 171.436 206.717C171.284 207.029 171.208 207.393 171.208 207.809C171.208 208.225 171.288 208.589 171.448 208.901C171.608 209.205 171.824 209.441 172.096 209.609C172.376 209.777 172.692 209.861 173.044 209.861Z" fill="#111827"/>
<rect x="213.75" y="147.799" width="45.5" height="45.5" rx="22.75" stroke="#D1D5DB" stroke-width="1.5"/>
<path d="M236.498 162.217C236.669 162.217 236.836 162.268 236.978 162.363C237.119 162.458 237.23 162.593 237.295 162.751V162.752L239.072 167.055L239.17 167.292L239.424 167.312L244.032 167.682V167.683C244.203 167.698 244.365 167.762 244.499 167.869C244.633 167.975 244.732 168.118 244.785 168.281C244.838 168.443 244.842 168.619 244.796 168.784C244.75 168.948 244.657 169.096 244.527 169.208L243.402 170.178L243.405 170.177L241.016 172.24L240.824 172.406L240.883 172.652L241.954 177.188V177.19C241.994 177.356 241.984 177.53 241.925 177.69C241.866 177.85 241.76 177.99 241.622 178.09C241.484 178.191 241.319 178.248 241.148 178.255C240.978 178.262 240.809 178.218 240.663 178.129H240.664L236.719 175.702L236.5 175.567L236.281 175.702L232.336 178.128C232.19 178.217 232.021 178.261 231.851 178.253C231.68 178.246 231.516 178.189 231.378 178.088C231.24 177.988 231.135 177.849 231.076 177.689C231.017 177.529 231.006 177.355 231.046 177.189V177.188L232.121 172.652L232.18 172.406L231.987 172.24L228.473 169.207C228.344 169.095 228.25 168.948 228.204 168.784C228.158 168.619 228.161 168.444 228.214 168.282C228.266 168.119 228.366 167.976 228.499 167.87C228.633 167.763 228.795 167.698 228.965 167.683L228.964 167.682L233.571 167.312L233.825 167.292L233.923 167.055L235.7 162.752L235.701 162.751C235.766 162.593 235.877 162.458 236.019 162.363C236.16 162.268 236.327 162.217 236.498 162.217Z" fill="white" stroke="#6B7280" stroke-width="0.833333"/>
<path d="M209.568 211.277C208.792 211.277 208.136 211.153 207.6 210.905C207.072 210.657 206.668 210.317 206.388 209.885C206.108 209.445 205.968 208.949 205.968 208.397H207.636C207.636 208.629 207.7 208.857 207.828 209.081C207.956 209.297 208.16 209.473 208.44 209.609C208.728 209.745 209.104 209.813 209.568 209.813C209.984 209.813 210.332 209.753 210.612 209.633C210.892 209.513 211.1 209.357 211.236 209.165C211.372 208.965 211.44 208.741 211.44 208.493C211.44 208.181 211.308 207.933 211.044 207.749C210.78 207.557 210.372 207.437 209.82 207.389L209.052 207.329C208.212 207.257 207.54 206.997 207.036 206.549C206.54 206.093 206.292 205.493 206.292 204.749C206.292 204.189 206.424 203.709 206.688 203.309C206.952 202.901 207.32 202.589 207.792 202.373C208.272 202.149 208.832 202.037 209.472 202.037C210.136 202.037 210.708 202.153 211.188 202.385C211.668 202.617 212.04 202.945 212.304 203.369C212.568 203.785 212.7 204.277 212.7 204.845H211.032C211.032 204.605 210.972 204.385 210.852 204.185C210.74 203.977 210.568 203.813 210.336 203.693C210.112 203.565 209.824 203.501 209.472 203.501C209.136 203.501 208.856 203.557 208.632 203.669C208.408 203.781 208.24 203.933 208.128 204.125C208.016 204.317 207.96 204.525 207.96 204.749C207.96 205.021 208.06 205.261 208.26 205.469C208.46 205.669 208.776 205.785 209.208 205.817L209.976 205.889C210.6 205.937 211.148 206.069 211.62 206.285C212.092 206.501 212.456 206.793 212.712 207.161C212.976 207.529 213.108 207.973 213.108 208.493C213.108 209.045 212.964 209.533 212.676 209.957C212.388 210.373 211.976 210.697 211.44 210.929C210.912 211.161 210.288 211.277 209.568 211.277ZM214.294 211.049V202.289H215.962V207.401H215.674C215.674 206.745 215.758 206.189 215.926 205.733C216.094 205.277 216.342 204.929 216.67 204.689C217.006 204.449 217.43 204.329 217.942 204.329H218.014C218.758 204.329 219.322 204.585 219.706 205.097C220.09 205.609 220.282 206.353 220.282 207.329V211.049H218.614V207.173C218.614 206.757 218.494 206.429 218.254 206.189C218.022 205.949 217.714 205.829 217.33 205.829C216.922 205.829 216.59 205.965 216.334 206.237C216.086 206.501 215.962 206.849 215.962 207.281V211.049H214.294ZM224.967 211.277C224.391 211.277 223.883 211.185 223.443 211.001C223.003 210.817 222.631 210.569 222.327 210.257C222.023 209.937 221.791 209.577 221.631 209.177C221.479 208.777 221.403 208.361 221.403 207.929V207.677C221.403 207.229 221.483 206.805 221.643 206.405C221.811 205.997 222.047 205.637 222.351 205.325C222.663 205.005 223.039 204.757 223.479 204.581C223.919 204.397 224.415 204.305 224.967 204.305C225.519 204.305 226.015 204.397 226.455 204.581C226.895 204.757 227.267 205.005 227.571 205.325C227.883 205.637 228.119 205.997 228.279 206.405C228.439 206.805 228.519 207.229 228.519 207.677V207.929C228.519 208.361 228.439 208.777 228.279 209.177C228.127 209.577 227.899 209.937 227.595 210.257C227.291 210.569 226.919 210.817 226.479 211.001C226.039 211.185 225.535 211.277 224.967 211.277ZM224.967 209.849C225.375 209.849 225.719 209.761 225.999 209.585C226.279 209.401 226.491 209.157 226.635 208.853C226.779 208.541 226.851 208.189 226.851 207.797C226.851 207.397 226.775 207.045 226.623 206.741C226.479 206.429 226.263 206.185 225.975 206.009C225.695 205.825 225.359 205.733 224.967 205.733C224.575 205.733 224.235 205.825 223.947 206.009C223.667 206.185 223.451 206.429 223.299 206.741C223.147 207.045 223.071 207.397 223.071 207.797C223.071 208.189 223.143 208.541 223.287 208.853C223.439 209.157 223.655 209.401 223.935 209.585C224.215 209.761 224.559 209.849 224.967 209.849ZM231.831 211.049L233.067 204.749H234.987L236.415 211.049H235.095L233.643 204.785H234.339L233.055 211.049H231.831ZM231.339 211.049L231.327 209.681H232.659V211.049H231.339ZM230.667 211.049L228.891 204.533H230.511L232.203 211.049H230.667ZM235.515 211.049V209.681H236.847L236.835 211.049H235.515ZM236.043 211.049L237.543 204.533H239.055L237.483 211.049H236.043ZM242.88 211.277C242.312 211.277 241.82 211.181 241.404 210.989C240.996 210.797 240.652 210.541 240.372 210.221C240.1 209.901 239.896 209.541 239.76 209.141C239.624 208.741 239.556 208.333 239.556 207.917V207.689C239.556 207.249 239.624 206.829 239.76 206.429C239.904 206.021 240.116 205.661 240.396 205.349C240.676 205.029 241.02 204.777 241.428 204.593C241.844 204.401 242.324 204.305 242.868 204.305C243.436 204.305 243.944 204.417 244.392 204.641C244.84 204.857 245.196 205.161 245.46 205.553C245.732 205.945 245.884 206.401 245.916 206.921H244.296C244.256 206.585 244.112 206.305 243.864 206.081C243.624 205.857 243.292 205.745 242.868 205.745C242.5 205.745 242.192 205.833 241.944 206.009C241.704 206.185 241.524 206.429 241.404 206.741C241.284 207.045 241.224 207.397 241.224 207.797C241.224 208.181 241.28 208.529 241.392 208.841C241.512 209.153 241.692 209.397 241.932 209.573C242.18 209.749 242.496 209.837 242.88 209.837C243.168 209.837 243.416 209.785 243.624 209.681C243.832 209.577 243.996 209.433 244.116 209.249C244.244 209.065 244.324 208.857 244.356 208.625H245.976C245.944 209.153 245.788 209.617 245.508 210.017C245.236 210.409 244.872 210.717 244.416 210.941C243.968 211.165 243.456 211.277 242.88 211.277ZM251.02 211.049V209.117H250.744V206.969C250.744 206.593 250.652 206.313 250.468 206.129C250.284 205.945 250 205.853 249.616 205.853C249.416 205.853 249.176 205.857 248.896 205.865C248.616 205.873 248.332 205.885 248.044 205.901C247.764 205.909 247.512 205.921 247.288 205.937V204.521C247.472 204.505 247.68 204.489 247.912 204.473C248.144 204.457 248.38 204.449 248.62 204.449C248.868 204.441 249.1 204.437 249.316 204.437C249.988 204.437 250.544 204.525 250.984 204.701C251.432 204.877 251.768 205.153 251.992 205.529C252.224 205.905 252.34 206.397 252.34 207.005V211.049H251.02ZM248.92 211.217C248.448 211.217 248.032 211.133 247.672 210.965C247.32 210.797 247.044 210.557 246.844 210.245C246.652 209.933 246.556 209.557 246.556 209.117C246.556 208.637 246.672 208.245 246.904 207.941C247.144 207.637 247.476 207.409 247.9 207.257C248.332 207.105 248.836 207.029 249.412 207.029H250.924V208.025H249.388C249.004 208.025 248.708 208.121 248.5 208.313C248.3 208.497 248.2 208.737 248.2 209.033C248.2 209.329 248.3 209.569 248.5 209.753C248.708 209.937 249.004 210.029 249.388 210.029C249.62 210.029 249.832 209.989 250.024 209.909C250.224 209.821 250.388 209.677 250.516 209.477C250.652 209.269 250.728 208.989 250.744 208.637L251.152 209.105C251.112 209.561 251 209.945 250.816 210.257C250.64 210.569 250.392 210.809 250.072 210.977C249.76 211.137 249.376 211.217 248.92 211.217ZM256.251 211.253C255.355 211.253 254.651 211.065 254.139 210.689C253.635 210.305 253.371 209.777 253.347 209.105H254.847C254.871 209.329 254.995 209.533 255.219 209.717C255.443 209.901 255.795 209.993 256.275 209.993C256.675 209.993 256.991 209.921 257.223 209.777C257.463 209.633 257.583 209.437 257.583 209.189C257.583 208.973 257.491 208.801 257.307 208.673C257.131 208.545 256.827 208.461 256.395 208.421L255.819 208.361C255.091 208.281 254.531 208.073 254.139 207.737C253.747 207.401 253.551 206.953 253.551 206.393C253.551 205.945 253.663 205.569 253.887 205.265C254.111 204.961 254.419 204.733 254.811 204.581C255.211 204.421 255.667 204.341 256.179 204.341C256.979 204.341 257.627 204.517 258.123 204.869C258.619 205.221 258.879 205.737 258.903 206.417H257.403C257.387 206.193 257.275 206.001 257.067 205.841C256.859 205.681 256.559 205.601 256.167 205.601C255.815 205.601 255.543 205.669 255.351 205.805C255.159 205.941 255.063 206.117 255.063 206.333C255.063 206.541 255.139 206.701 255.291 206.813C255.451 206.925 255.707 207.001 256.059 207.041L256.635 207.101C257.403 207.181 258.003 207.393 258.435 207.737C258.875 208.081 259.095 208.545 259.095 209.129C259.095 209.561 258.975 209.937 258.735 210.257C258.503 210.569 258.175 210.813 257.751 210.989C257.327 211.165 256.827 211.253 256.251 211.253ZM263.149 211.277C262.589 211.277 262.097 211.181 261.673 210.989C261.257 210.797 260.909 210.541 260.629 210.221C260.357 209.893 260.149 209.529 260.005 209.129C259.869 208.729 259.801 208.321 259.801 207.905V207.677C259.801 207.245 259.869 206.829 260.005 206.429C260.149 206.021 260.357 205.661 260.629 205.349C260.909 205.029 261.253 204.777 261.661 204.593C262.069 204.401 262.541 204.305 263.077 204.305C263.781 204.305 264.369 204.461 264.841 204.773C265.321 205.077 265.681 205.481 265.921 205.985C266.161 206.481 266.281 207.017 266.281 207.593V208.193H260.509V207.173H265.237L264.721 207.677C264.721 207.261 264.661 206.905 264.541 206.609C264.421 206.313 264.237 206.085 263.989 205.925C263.749 205.765 263.445 205.685 263.077 205.685C262.709 205.685 262.397 205.769 262.141 205.937C261.885 206.105 261.689 206.349 261.553 206.669C261.425 206.981 261.361 207.357 261.361 207.797C261.361 208.205 261.425 208.569 261.553 208.889C261.681 209.201 261.877 209.449 262.141 209.633C262.405 209.809 262.741 209.897 263.149 209.897C263.557 209.897 263.889 209.817 264.145 209.657C264.401 209.489 264.565 209.285 264.637 209.045H266.173C266.077 209.493 265.893 209.885 265.621 210.221C265.349 210.557 265.001 210.817 264.577 211.001C264.161 211.185 263.685 211.277 263.149 211.277Z" fill="#111827"/>
<mask id="path-13-inside-1_646_1080" fill="white">
<path d="M15.1484 15C15.1484 10.5817 18.7302 7 23.1484 7H248.852C253.27 7 256.852 10.5817 256.852 15V31H15.1484V15Z"/>
</mask>
<path d="M15.1484 15C15.1484 10.5817 18.7302 7 23.1484 7H248.852C253.27 7 256.852 10.5817 256.852 15V31H15.1484V15Z" fill="white"/>
<path d="M13.6484 15C13.6484 9.75329 17.9017 5.5 23.1484 5.5H248.852C254.099 5.5 258.352 9.75329 258.352 15H255.352C255.352 11.4101 252.442 8.5 248.852 8.5H23.1484C19.5586 8.5 16.6484 11.4101 16.6484 15H13.6484ZM16.6484 15M256.852 31H15.1484H256.852M13.6484 31V15C13.6484 9.75329 17.9017 5.5 23.1484 5.5V8.5C19.5586 8.5 16.6484 11.4101 16.6484 15V31H13.6484ZM248.852 5.5C254.099 5.5 258.352 9.75329 258.352 15V31H255.352V15C255.352 11.4101 252.442 8.5 248.852 8.5V5.5Z" fill="#E5E7EB" mask="url(#path-13-inside-1_646_1080)"/>
<circle cx="31.6953" cy="20" r="4.5" fill="#B45309"/>
<circle cx="46.6953" cy="20" r="4.5" fill="#FBBF24"/>
<path d="M66.1953 20C66.1953 22.4853 64.1806 24.5 61.6953 24.5C59.21 24.5 57.1953 22.4853 57.1953 20C57.1953 17.5147 59.21 15.5 61.6953 15.5C64.1806 15.5 66.1953 17.5147 66.1953 20Z" fill="#A3E635"/>
<g clip-path="url(#clip0_646_1080)">
<path d="M15 30.873H257V128.873C257 133.291 253.418 136.873 249 136.873H23C18.5817 136.873 15 133.291 15 128.873V30.873Z" fill="white"/>
<mask id="path-20-outside-2_646_1080" maskUnits="userSpaceOnUse" x="144" y="43.9197" width="100" height="21" fill="black">
<rect fill="white" x="144" y="43.9197" width="100" height="21"/>
<path d="M144 43.9197H244V63.9197H144V43.9197Z"/>
</mask>
<path d="M244 63.9197V62.9197H144V63.9197V64.9197H244V63.9197Z" fill="#E5E7EB" mask="url(#path-20-outside-2_646_1080)"/>
<rect x="144" y="43.9197" width="16" height="16" rx="8" fill="#FBBF24"/>
<path d="M156.804 50.3748L151.454 55.7248C151.329 55.8497 151.16 55.9199 150.983 55.9199C150.806 55.9199 150.637 55.8497 150.512 55.7248L147.527 52.7248C147.403 52.5998 147.333 52.4303 147.333 52.2537C147.333 52.0771 147.403 51.9077 147.527 51.7827L148.361 50.9493C148.486 50.8249 148.655 50.7551 148.831 50.7551C149.007 50.7551 149.177 50.8249 149.302 50.9493L151 52.596L155.031 48.6139C155.156 48.4894 155.325 48.4194 155.502 48.4194C155.678 48.4194 155.847 48.4894 155.972 48.6139L156.804 49.4281C156.866 49.49 156.916 49.5637 156.95 49.645C156.984 49.7262 157.001 49.8133 157.001 49.9013C157.001 49.9893 156.984 50.0765 156.95 50.1577C156.916 50.239 156.867 50.3127 156.804 50.3748Z" fill="white"/>
<path d="M167.435 48.647L169.459 54.5702H169.54L171.565 48.647H172.751L170.134 55.9197H168.866L166.249 48.647H167.435ZM173.516 55.9197V50.4651H174.578V55.9197H173.516ZM174.052 49.6235C173.867 49.6235 173.709 49.562 173.576 49.4389C173.446 49.3134 173.381 49.1642 173.381 48.9914C173.381 48.8162 173.446 48.6671 173.576 48.544C173.709 48.4185 173.867 48.3558 174.052 48.3558C174.237 48.3558 174.394 48.4185 174.524 48.544C174.657 48.6671 174.723 48.8162 174.723 48.9914C174.723 49.1642 174.657 49.3134 174.524 49.4389C174.394 49.562 174.237 49.6235 174.052 49.6235ZM177.848 56.0262C177.408 56.0262 177.015 55.9138 176.669 55.6889C176.326 55.4616 176.056 55.1384 175.859 54.7194C175.665 54.298 175.568 53.7925 175.568 53.2031C175.568 52.6136 175.666 52.1093 175.863 51.6903C176.062 51.2712 176.334 50.9505 176.68 50.7279C177.025 50.5054 177.417 50.3941 177.855 50.3941C178.194 50.3941 178.466 50.4509 178.672 50.5646C178.88 50.6758 179.041 50.806 179.155 50.9552C179.271 51.1043 179.361 51.2357 179.425 51.3494H179.488V48.647H180.55V55.9197H179.513V55.071H179.425C179.361 55.187 179.268 55.3195 179.148 55.4687C179.029 55.6178 178.866 55.748 178.658 55.8593C178.449 55.9706 178.179 56.0262 177.848 56.0262ZM178.082 55.1207C178.388 55.1207 178.646 55.0402 178.856 54.8792C179.069 54.7158 179.23 54.4898 179.339 54.2009C179.451 53.9121 179.506 53.5759 179.506 53.1924C179.506 52.8136 179.452 52.4822 179.343 52.1981C179.234 51.914 179.074 51.6926 178.863 51.534C178.653 51.3754 178.392 51.2961 178.082 51.2961C177.763 51.2961 177.496 51.379 177.283 51.5447C177.07 51.7104 176.909 51.9365 176.8 52.2229C176.694 52.5094 176.64 52.8326 176.64 53.1924C176.64 53.557 176.695 53.8849 176.804 54.1761C176.913 54.4673 177.074 54.6981 177.287 54.8685C177.502 55.0366 177.767 55.1207 178.082 55.1207ZM184.217 56.0298C183.679 56.0298 183.216 55.9149 182.828 55.6853C182.442 55.4533 182.144 55.1278 181.933 54.7087C181.725 54.2873 181.621 53.7937 181.621 53.2279C181.621 52.6692 181.725 52.1768 181.933 51.7506C182.144 51.3245 182.437 50.9919 182.814 50.7528C183.193 50.5137 183.635 50.3941 184.142 50.3941C184.45 50.3941 184.748 50.445 185.037 50.5468C185.326 50.6486 185.585 50.8084 185.815 51.0262C186.044 51.244 186.225 51.5269 186.358 51.8749C186.49 52.2206 186.557 52.6408 186.557 53.1356V53.512H182.221V52.7166H185.516C185.516 52.4372 185.459 52.1898 185.346 51.9744C185.232 51.7566 185.072 51.5849 184.866 51.4595C184.663 51.334 184.424 51.2712 184.149 51.2712C183.851 51.2712 183.59 51.3446 183.368 51.4914C183.148 51.6358 182.977 51.8252 182.856 52.0596C182.738 52.2916 182.679 52.5437 182.679 52.816V53.4374C182.679 53.802 182.743 54.1121 182.871 54.3678C183.001 54.6235 183.182 54.8188 183.414 54.9538C183.646 55.0863 183.917 55.1526 184.227 55.1526C184.428 55.1526 184.612 55.1242 184.778 55.0674C184.943 55.0082 185.087 54.9206 185.207 54.8046C185.328 54.6886 185.42 54.5454 185.484 54.3749L186.489 54.556C186.409 54.852 186.264 55.1112 186.056 55.3337C185.85 55.5539 185.591 55.7255 185.278 55.8487C184.968 55.9694 184.614 56.0298 184.217 56.0298ZM189.832 56.0298C189.321 56.0298 188.875 55.9126 188.494 55.6782C188.113 55.4438 187.817 55.1159 187.606 54.6945C187.395 54.2731 187.29 53.7807 187.29 53.2173C187.29 52.6514 187.395 52.1567 187.606 51.7329C187.817 51.3091 188.113 50.98 188.494 50.7457C188.875 50.5113 189.321 50.3941 189.832 50.3941C190.344 50.3941 190.79 50.5113 191.171 50.7457C191.552 50.98 191.848 51.3091 192.059 51.7329C192.27 52.1567 192.375 52.6514 192.375 53.2173C192.375 53.7807 192.27 54.2731 192.059 54.6945C191.848 55.1159 191.552 55.4438 191.171 55.6782C190.79 55.9126 190.344 56.0298 189.832 56.0298ZM189.836 55.1384C190.167 55.1384 190.442 55.0508 190.66 54.8756C190.878 54.7005 191.039 54.4673 191.143 54.1761C191.249 53.8849 191.303 53.5641 191.303 53.2137C191.303 52.8657 191.249 52.5461 191.143 52.2549C191.039 51.9613 190.878 51.7258 190.66 51.5482C190.442 51.3707 190.167 51.2819 189.836 51.2819C189.502 51.2819 189.225 51.3707 189.005 51.5482C188.787 51.7258 188.625 51.9613 188.519 52.2549C188.414 52.5461 188.362 52.8657 188.362 53.2137C188.362 53.5641 188.414 53.8849 188.519 54.1761C188.625 54.4673 188.787 54.7005 189.005 54.8756C189.225 55.0508 189.502 55.1384 189.836 55.1384ZM196.869 48.647V55.9197H195.807V48.647H196.869ZM200.448 56.0298C199.91 56.0298 199.448 55.9149 199.059 55.6853C198.673 55.4533 198.375 55.1278 198.164 54.7087C197.956 54.2873 197.852 53.7937 197.852 53.2279C197.852 52.6692 197.956 52.1768 198.164 51.7506C198.375 51.3245 198.669 50.9919 199.045 50.7528C199.424 50.5137 199.867 50.3941 200.373 50.3941C200.681 50.3941 200.979 50.445 201.268 50.5468C201.557 50.6486 201.816 50.8084 202.046 51.0262C202.275 51.244 202.457 51.5269 202.589 51.8749C202.722 52.2206 202.788 52.6408 202.788 53.1356V53.512H198.452V52.7166H201.748C201.748 52.4372 201.691 52.1898 201.577 51.9744C201.463 51.7566 201.304 51.5849 201.098 51.4595C200.894 51.334 200.655 51.2712 200.38 51.2712C200.082 51.2712 199.822 51.3446 199.599 51.4914C199.379 51.6358 199.208 51.8252 199.088 52.0596C198.969 52.2916 198.91 52.5437 198.91 52.816V53.4374C198.91 53.802 198.974 54.1121 199.102 54.3678C199.232 54.6235 199.413 54.8188 199.645 54.9538C199.877 55.0863 200.148 55.1526 200.458 55.1526C200.66 55.1526 200.843 55.1242 201.009 55.0674C201.175 55.0082 201.318 54.9206 201.439 54.8046C201.559 54.6886 201.652 54.5454 201.716 54.3749L202.721 54.556C202.64 54.852 202.496 55.1112 202.287 55.3337C202.081 55.5539 201.822 55.7255 201.51 55.8487C201.199 55.9694 200.846 56.0298 200.448 56.0298ZM207.853 51.7968L206.891 51.9673C206.851 51.8442 206.787 51.727 206.699 51.6157C206.614 51.5044 206.498 51.4133 206.351 51.3423C206.205 51.2712 206.021 51.2357 205.801 51.2357C205.5 51.2357 205.249 51.3032 205.048 51.4381C204.847 51.5707 204.746 51.7424 204.746 51.9531C204.746 52.1354 204.814 52.2821 204.949 52.3934C205.084 52.5047 205.301 52.5958 205.602 52.6668L206.469 52.8657C206.97 52.9817 207.344 53.1604 207.591 53.4019C207.837 53.6434 207.96 53.9571 207.96 54.343C207.96 54.6697 207.865 54.9609 207.676 55.2166C207.489 55.4699 207.227 55.6687 206.891 55.8131C206.557 55.9576 206.17 56.0298 205.73 56.0298C205.119 56.0298 204.621 55.8996 204.235 55.6391C203.849 55.3764 203.612 55.0035 203.525 54.5205L204.551 54.3643C204.615 54.6318 204.746 54.8342 204.945 54.9715C205.144 55.1065 205.403 55.1739 205.723 55.1739C206.071 55.1739 206.349 55.1017 206.557 54.9573C206.766 54.8105 206.87 54.6318 206.87 54.4211C206.87 54.2506 206.806 54.1074 206.678 53.9914C206.553 53.8754 206.36 53.7878 206.099 53.7286L205.176 53.5262C204.667 53.4102 204.291 53.2255 204.047 52.9722C203.805 52.7189 203.684 52.3981 203.684 52.0099C203.684 51.6879 203.774 51.4062 203.954 51.1647C204.134 50.9232 204.383 50.735 204.7 50.6001C205.017 50.4628 205.381 50.3941 205.79 50.3941C206.38 50.3941 206.844 50.522 207.182 50.7776C207.521 51.0309 207.745 51.3707 207.853 51.7968ZM213.015 51.7968L212.052 51.9673C212.012 51.8442 211.948 51.727 211.861 51.6157C211.775 51.5044 211.659 51.4133 211.513 51.3423C211.366 51.2712 211.182 51.2357 210.962 51.2357C210.662 51.2357 210.411 51.3032 210.209 51.4381C210.008 51.5707 209.908 51.7424 209.908 51.9531C209.908 52.1354 209.975 52.2821 210.11 52.3934C210.245 52.5047 210.463 52.5958 210.763 52.6668L211.63 52.8657C212.132 52.9817 212.506 53.1604 212.752 53.4019C212.998 53.6434 213.121 53.9571 213.121 54.343C213.121 54.6697 213.027 54.9609 212.837 55.2166C212.65 55.4699 212.389 55.6687 212.052 55.8131C211.719 55.9576 211.332 56.0298 210.891 56.0298C210.28 56.0298 209.782 55.8996 209.396 55.6391C209.01 55.3764 208.774 55.0035 208.686 54.5205L209.712 54.3643C209.776 54.6318 209.908 54.8342 210.106 54.9715C210.305 55.1065 210.565 55.1739 210.884 55.1739C211.232 55.1739 211.51 55.1017 211.719 54.9573C211.927 54.8105 212.031 54.6318 212.031 54.4211C212.031 54.2506 211.967 54.1074 211.839 53.9914C211.714 53.8754 211.521 53.7878 211.261 53.7286L210.337 53.5262C209.828 53.4102 209.452 53.2255 209.208 52.9722C208.967 52.7189 208.846 52.3981 208.846 52.0099C208.846 51.6879 208.936 51.4062 209.116 51.1647C209.296 50.9232 209.544 50.735 209.861 50.6001C210.179 50.4628 210.542 50.3941 210.952 50.3941C211.541 50.3941 212.005 50.522 212.344 50.7776C212.682 51.0309 212.906 51.3707 213.015 51.7968ZM216.386 56.0298C215.875 56.0298 215.429 55.9126 215.048 55.6782C214.666 55.4438 214.371 55.1159 214.16 54.6945C213.949 54.2731 213.844 53.7807 213.844 53.2173C213.844 52.6514 213.949 52.1567 214.16 51.7329C214.371 51.3091 214.666 50.98 215.048 50.7457C215.429 50.5113 215.875 50.3941 216.386 50.3941C216.898 50.3941 217.344 50.5113 217.725 50.7457C218.106 50.98 218.402 51.3091 218.613 51.7329C218.824 52.1567 218.929 52.6514 218.929 53.2173C218.929 53.7807 218.824 54.2731 218.613 54.6945C218.402 55.1159 218.106 55.4438 217.725 55.6782C217.344 55.9126 216.898 56.0298 216.386 56.0298ZM216.39 55.1384C216.721 55.1384 216.996 55.0508 217.214 54.8756C217.432 54.7005 217.593 54.4673 217.697 54.1761C217.803 53.8849 217.857 53.5641 217.857 53.2137C217.857 52.8657 217.803 52.5461 217.697 52.2549C217.593 51.9613 217.432 51.7258 217.214 51.5482C216.996 51.3707 216.721 51.2819 216.39 51.2819C216.056 51.2819 215.779 51.3707 215.559 51.5482C215.341 51.7258 215.179 51.9613 215.072 52.2549C214.968 52.5461 214.916 52.8657 214.916 53.2137C214.916 53.5641 214.968 53.8849 215.072 54.1761C215.179 54.4673 215.341 54.7005 215.559 54.8756C215.779 55.0508 216.056 55.1384 216.39 55.1384ZM220.976 52.681V55.9197H219.914V50.4651H220.933V51.3529H221.001C221.126 51.0641 221.323 50.8321 221.59 50.6569C221.86 50.4817 222.2 50.3941 222.609 50.3941C222.981 50.3941 223.307 50.4722 223.586 50.6285C223.865 50.7824 224.082 51.012 224.236 51.3174C224.39 51.6228 224.467 52.0004 224.467 52.4502V55.9197H223.405V52.5781C223.405 52.1827 223.302 51.8737 223.096 51.6512C222.89 51.4263 222.607 51.3139 222.247 51.3139C222.001 51.3139 221.782 51.3671 221.59 51.4737C221.401 51.5802 221.251 51.7364 221.139 51.9424C221.03 52.146 220.976 52.3922 220.976 52.681ZM229.778 51.7968L228.816 51.9673C228.775 51.8442 228.712 51.727 228.624 51.6157C228.539 51.5044 228.423 51.4133 228.276 51.3423C228.129 51.2712 227.946 51.2357 227.726 51.2357C227.425 51.2357 227.174 51.3032 226.973 51.4381C226.771 51.5707 226.671 51.7424 226.671 51.9531C226.671 52.1354 226.738 52.2821 226.873 52.3934C227.008 52.5047 227.226 52.5958 227.527 52.6668L228.393 52.8657C228.895 52.9817 229.269 53.1604 229.515 53.4019C229.762 53.6434 229.885 53.9571 229.885 54.343C229.885 54.6697 229.79 54.9609 229.601 55.2166C229.414 55.4699 229.152 55.6687 228.816 55.8131C228.482 55.9576 228.095 56.0298 227.655 56.0298C227.044 56.0298 226.545 55.8996 226.159 55.6391C225.774 55.3764 225.537 55.0035 225.449 54.5205L226.476 54.3643C226.539 54.6318 226.671 54.8342 226.87 54.9715C227.069 55.1065 227.328 55.1739 227.647 55.1739C227.995 55.1739 228.274 55.1017 228.482 54.9573C228.69 54.8105 228.794 54.6318 228.794 54.4211C228.794 54.2506 228.731 54.1074 228.603 53.9914C228.477 53.8754 228.284 53.7878 228.024 53.7286L227.101 53.5262C226.592 53.4102 226.215 53.2255 225.971 52.9722C225.73 52.7189 225.609 52.3981 225.609 52.0099C225.609 51.6879 225.699 51.4062 225.879 51.1647C226.059 50.9232 226.307 50.735 226.625 50.6001C226.942 50.4628 227.305 50.3941 227.715 50.3941C228.304 50.3941 228.768 50.522 229.107 50.7776C229.445 51.0309 229.669 51.3707 229.778 51.7968Z" fill="#374151"/>
<mask id="path-25-outside-3_646_1080" maskUnits="userSpaceOnUse" x="144" y="73.9197" width="100" height="21" fill="black">
<rect fill="white" x="144" y="73.9197" width="100" height="21"/>
<path d="M144 73.9197H244V93.9197H144V73.9197Z"/>
</mask>
<path d="M244 93.9197V92.9197H144V93.9197V94.9197H244V93.9197Z" fill="#E5E7EB" mask="url(#path-25-outside-3_646_1080)"/>
<rect x="144" y="73.9197" width="16" height="16" rx="8" fill="#FBBF24"/>
<path d="M156.804 80.3748L151.454 85.7248C151.329 85.8497 151.16 85.9199 150.983 85.9199C150.806 85.9199 150.637 85.8497 150.512 85.7248L147.527 82.7248C147.403 82.5998 147.333 82.4303 147.333 82.2537C147.333 82.0771 147.403 81.9077 147.527 81.7827L148.361 80.9493C148.486 80.8249 148.655 80.7551 148.831 80.7551C149.007 80.7551 149.177 80.8249 149.302 80.9493L151 82.596L155.031 78.6139C155.156 78.4894 155.325 78.4194 155.502 78.4194C155.678 78.4194 155.847 78.4894 155.972 78.6139L156.804 79.4281C156.866 79.49 156.916 79.5637 156.95 79.645C156.984 79.7262 157.001 79.8133 157.001 79.9013C157.001 79.9893 156.984 80.0765 156.95 80.1577C156.916 80.239 156.867 80.3127 156.804 80.3748Z" fill="white"/>
<path d="M171.721 80.9445C171.652 80.7291 171.56 80.5362 171.444 80.3657C171.33 80.1929 171.194 80.0461 171.036 79.9254C170.877 79.8023 170.696 79.7087 170.492 79.6448C170.291 79.5809 170.07 79.5489 169.828 79.5489C169.419 79.5489 169.049 79.6543 168.72 79.865C168.391 80.0757 168.131 80.3846 167.939 80.7918C167.75 81.1967 167.655 81.6926 167.655 82.2798C167.655 82.8693 167.751 83.3676 167.942 83.7748C168.134 84.182 168.397 84.4909 168.731 84.7016C169.065 84.9123 169.445 85.0177 169.871 85.0177C170.266 85.0177 170.611 84.9372 170.904 84.7762C171.2 84.6152 171.429 84.388 171.589 84.0944C171.753 83.7985 171.835 83.4505 171.835 83.0504L172.119 83.1036H170.038V82.1981H172.896V83.0255C172.896 83.6363 172.766 84.1666 172.506 84.6164C172.248 85.0639 171.89 85.4095 171.433 85.6533C170.979 85.8972 170.458 86.0191 169.871 86.0191C169.213 86.0191 168.635 85.8676 168.138 85.5646C167.643 85.2615 167.257 84.8318 166.98 84.2755C166.703 83.7168 166.565 83.0539 166.565 82.2869C166.565 81.7068 166.645 81.186 166.806 80.7244C166.967 80.2627 167.193 79.8709 167.484 79.5489C167.778 79.2246 168.122 78.9772 168.518 78.8068C168.915 78.6339 169.35 78.5475 169.821 78.5475C170.214 78.5475 170.58 78.6055 170.918 78.7215C171.259 78.8375 171.562 79.0021 171.827 79.2151C172.095 79.4282 172.316 79.6815 172.491 79.9751C172.667 80.2663 172.785 80.5894 172.847 80.9445H171.721ZM177.459 83.6576V80.4651H178.525V85.9197H177.481V84.9751H177.424C177.298 85.2663 177.097 85.5089 176.82 85.7031C176.545 85.8948 176.203 85.9907 175.794 85.9907C175.443 85.9907 175.133 85.9138 174.863 85.7599C174.596 85.6036 174.385 85.3728 174.231 85.0674C174.08 84.762 174.004 84.3844 174.004 83.9346V80.4651H175.066V83.8068C175.066 84.1784 175.169 84.4744 175.375 84.6945C175.581 84.9147 175.848 85.0248 176.177 85.0248C176.376 85.0248 176.574 84.9751 176.77 84.8756C176.969 84.7762 177.134 84.6259 177.264 84.4246C177.397 84.2234 177.462 83.9677 177.459 83.6576ZM179.751 85.9197V80.4651H180.813V85.9197H179.751ZM180.288 79.6235C180.103 79.6235 179.944 79.562 179.812 79.4389C179.681 79.3134 179.616 79.1642 179.616 78.9914C179.616 78.8162 179.681 78.6671 179.812 78.544C179.944 78.4185 180.103 78.3558 180.288 78.3558C180.472 78.3558 180.63 78.4185 180.76 78.544C180.892 78.6671 180.959 78.8162 180.959 78.9914C180.959 79.1642 180.892 79.3134 180.76 79.4389C180.63 79.562 180.472 79.6235 180.288 79.6235ZM184.083 86.0262C183.643 86.0262 183.25 85.9138 182.904 85.6889C182.561 85.4616 182.291 85.1384 182.095 84.7194C181.901 84.298 181.804 83.7925 181.804 83.2031C181.804 82.6136 181.902 82.1093 182.098 81.6903C182.297 81.2712 182.569 80.9505 182.915 80.7279C183.261 80.5054 183.653 80.3941 184.091 80.3941C184.429 80.3941 184.701 80.4509 184.907 80.5646C185.116 80.6758 185.277 80.806 185.39 80.9552C185.506 81.1043 185.596 81.2357 185.66 81.3494H185.724V78.647H186.786V85.9197H185.749V85.071H185.66C185.596 85.187 185.504 85.3195 185.383 85.4687C185.265 85.6178 185.101 85.748 184.893 85.8593C184.685 85.9706 184.415 86.0262 184.083 86.0262ZM184.318 85.1207C184.623 85.1207 184.881 85.0402 185.092 84.8792C185.305 84.7158 185.466 84.4898 185.575 84.2009C185.686 83.9121 185.742 83.5759 185.742 83.1924C185.742 82.8136 185.687 82.4822 185.578 82.1981C185.47 81.914 185.31 81.6926 185.099 81.534C184.888 81.3754 184.628 81.2961 184.318 81.2961C183.998 81.2961 183.732 81.379 183.519 81.5447C183.306 81.7104 183.145 81.9365 183.036 82.2229C182.929 82.5094 182.876 82.8326 182.876 83.1924C182.876 83.557 182.93 83.8849 183.039 84.1761C183.148 84.4673 183.309 84.6981 183.522 84.8685C183.738 85.0366 184.003 85.1207 184.318 85.1207ZM190.452 86.0298C189.915 86.0298 189.452 85.9149 189.064 85.6853C188.678 85.4533 188.379 85.1278 188.169 84.7087C187.96 84.2873 187.856 83.7937 187.856 83.2279C187.856 82.6692 187.96 82.1768 188.169 81.7506C188.379 81.3245 188.673 80.9919 189.049 80.7528C189.428 80.5137 189.871 80.3941 190.378 80.3941C190.685 80.3941 190.984 80.445 191.272 80.5468C191.561 80.6486 191.821 80.8084 192.05 81.0262C192.28 81.244 192.461 81.5269 192.593 81.8749C192.726 82.2206 192.792 82.6408 192.792 83.1356V83.512H188.456V82.7166H191.752C191.752 82.4372 191.695 82.1898 191.581 81.9744C191.468 81.7566 191.308 81.5849 191.102 81.4595C190.898 81.334 190.659 81.2712 190.385 81.2712C190.086 81.2712 189.826 81.3446 189.603 81.4914C189.383 81.6358 189.213 81.8252 189.092 82.0596C188.974 82.2916 188.914 82.5437 188.914 82.816V83.4374C188.914 83.802 188.978 84.1121 189.106 84.3678C189.236 84.6235 189.418 84.8188 189.65 84.9538C189.882 85.0863 190.153 85.1526 190.463 85.1526C190.664 85.1526 190.847 85.1242 191.013 85.0674C191.179 85.0082 191.322 84.9206 191.443 84.8046C191.564 84.6886 191.656 84.5454 191.72 84.3749L192.725 84.556C192.644 84.852 192.5 85.1112 192.292 85.3337C192.086 85.5539 191.826 85.7255 191.514 85.8487C191.204 85.9694 190.85 86.0298 190.452 86.0298ZM196.217 87.9651V80.4651H197.254V81.3494H197.343C197.404 81.2357 197.493 81.1043 197.609 80.9552C197.725 80.806 197.886 80.6758 198.092 80.5646C198.298 80.4509 198.57 80.3941 198.909 80.3941C199.349 80.3941 199.742 80.5054 200.088 80.7279C200.433 80.9505 200.704 81.2712 200.901 81.6903C201.1 82.1093 201.199 82.6136 201.199 83.2031C201.199 83.7925 201.101 84.298 200.904 84.7194C200.708 85.1384 200.438 85.4616 200.095 85.6889C199.751 85.9138 199.36 86.0262 198.919 86.0262C198.588 86.0262 198.317 85.9706 198.106 85.8593C197.898 85.748 197.734 85.6178 197.616 85.4687C197.498 85.3195 197.407 85.187 197.343 85.071H197.279V87.9651H196.217ZM197.257 83.1924C197.257 83.5759 197.313 83.9121 197.424 84.2009C197.536 84.4898 197.697 84.7158 197.907 84.8792C198.118 85.0402 198.376 85.1207 198.681 85.1207C198.999 85.1207 199.264 85.0366 199.477 84.8685C199.69 84.6981 199.851 84.4673 199.96 84.1761C200.071 83.8849 200.127 83.557 200.127 83.1924C200.127 82.8326 200.072 82.5094 199.963 82.2229C199.857 81.9365 199.696 81.7104 199.48 81.5447C199.267 81.379 199.001 81.2961 198.681 81.2961C198.374 81.2961 198.113 81.3754 197.9 81.534C197.689 81.6926 197.53 81.914 197.421 82.1981C197.312 82.4822 197.257 82.8136 197.257 83.1924ZM202.189 85.9197V80.4651H203.215V81.3316H203.272C203.371 81.038 203.546 80.8072 203.797 80.6391C204.051 80.4687 204.337 80.3835 204.657 80.3835C204.723 80.3835 204.801 80.3858 204.891 80.3906C204.984 80.3953 205.056 80.4012 205.108 80.4083V81.4239C205.065 81.4121 204.989 81.3991 204.881 81.3849C204.772 81.3683 204.663 81.36 204.554 81.36C204.303 81.36 204.079 81.4133 203.883 81.5198C203.689 81.624 203.535 81.7696 203.421 81.9566C203.307 82.1413 203.251 82.352 203.251 82.5887V85.9197H202.189ZM207.365 86.0404C207.02 86.0404 206.707 85.9765 206.428 85.8487C206.148 85.7184 205.927 85.5302 205.764 85.284C205.603 85.0378 205.522 84.736 205.522 84.3785C205.522 84.0707 205.581 83.8174 205.7 83.6185C205.818 83.4197 205.978 83.2622 206.179 83.1462C206.38 83.0302 206.605 82.9426 206.854 82.8835C207.102 82.8243 207.356 82.7793 207.614 82.7485C207.94 82.7106 208.206 82.6799 208.409 82.6562C208.613 82.6301 208.761 82.5887 208.853 82.5319C208.945 82.4751 208.992 82.3827 208.992 82.2549V82.23C208.992 81.9199 208.904 81.6796 208.729 81.5092C208.556 81.3387 208.298 81.2535 207.955 81.2535C207.597 81.2535 207.315 81.3328 207.11 81.4914C206.906 81.6477 206.765 81.8217 206.687 82.0134L205.689 81.7862C205.807 81.4547 205.98 81.1872 206.208 80.9836C206.437 80.7776 206.701 80.6285 206.999 80.5362C207.298 80.4415 207.611 80.3941 207.94 80.3941C208.158 80.3941 208.389 80.4202 208.633 80.4722C208.879 80.522 209.109 80.6143 209.322 80.7492C209.537 80.8842 209.714 81.0771 209.851 81.3281C209.988 81.5766 210.057 81.8998 210.057 82.2975V85.9197H209.02V85.1739H208.977C208.909 85.3112 208.806 85.4462 208.668 85.5788C208.531 85.7113 208.355 85.8214 208.139 85.909C207.924 85.9966 207.666 86.0404 207.365 86.0404ZM207.596 85.1881C207.89 85.1881 208.141 85.1301 208.349 85.0141C208.56 84.8981 208.719 84.7466 208.828 84.5596C208.94 84.3702 208.995 84.1678 208.995 83.9523V83.2492C208.957 83.2871 208.884 83.3226 208.775 83.3558C208.668 83.3865 208.547 83.4138 208.409 83.4374C208.272 83.4587 208.138 83.4789 208.008 83.4978C207.878 83.5144 207.769 83.5286 207.681 83.5404C207.475 83.5665 207.287 83.6103 207.117 83.6718C206.949 83.7334 206.814 83.8221 206.712 83.9381C206.612 84.0518 206.563 84.2033 206.563 84.3927C206.563 84.6555 206.66 84.8543 206.854 84.9893C207.048 85.1219 207.295 85.1881 207.596 85.1881ZM213.569 86.0298C213.041 86.0298 212.586 85.9102 212.205 85.6711C211.826 85.4296 211.535 85.097 211.332 84.6732C211.128 84.2495 211.026 83.7641 211.026 83.2173C211.026 82.6633 211.13 82.1744 211.339 81.7506C211.547 81.3245 211.841 80.9919 212.219 80.7528C212.598 80.5137 213.044 80.3941 213.558 80.3941C213.972 80.3941 214.342 80.4711 214.666 80.6249C214.99 80.7764 215.252 80.9895 215.451 81.2641C215.652 81.5388 215.772 81.8595 215.81 82.2265H214.776C214.719 81.9708 214.589 81.7506 214.386 81.566C214.184 81.3813 213.914 81.289 213.576 81.289C213.28 81.289 213.021 81.3671 212.798 81.5234C212.578 81.6773 212.406 81.8974 212.283 82.1839C212.16 82.468 212.099 82.8041 212.099 83.1924C212.099 83.5901 212.159 83.9334 212.28 84.2222C212.4 84.5111 212.571 84.7348 212.791 84.8934C213.014 85.052 213.275 85.1313 213.576 85.1313C213.777 85.1313 213.959 85.0946 214.123 85.0212C214.288 84.9455 214.427 84.8378 214.538 84.6981C214.652 84.5584 214.731 84.3903 214.776 84.1938H215.81C215.772 84.5466 215.657 84.8614 215.465 85.1384C215.273 85.4154 215.016 85.6332 214.694 85.7918C214.375 85.9505 214 86.0298 213.569 86.0298ZM219.291 80.4651V81.3174H216.312V80.4651H219.291ZM217.111 79.1583H218.173V84.3181C218.173 84.5241 218.203 84.6791 218.265 84.7833C218.326 84.8851 218.406 84.955 218.503 84.9928C218.602 85.0283 218.71 85.0461 218.826 85.0461C218.911 85.0461 218.986 85.0402 219.05 85.0283C219.114 85.0165 219.163 85.007 219.199 84.9999L219.391 85.8771C219.329 85.9007 219.241 85.9244 219.128 85.9481C219.014 85.9741 218.872 85.9883 218.702 85.9907C218.422 85.9954 218.162 85.9457 217.92 85.8416C217.679 85.7374 217.484 85.5764 217.335 85.3586C217.185 85.1408 217.111 84.8674 217.111 84.5383V79.1583ZM220.266 85.9197V80.4651H221.328V85.9197H220.266ZM220.802 79.6235C220.617 79.6235 220.459 79.562 220.326 79.4389C220.196 79.3134 220.131 79.1642 220.131 78.9914C220.131 78.8162 220.196 78.6671 220.326 78.544C220.459 78.4185 220.617 78.3558 220.802 78.3558C220.987 78.3558 221.144 78.4185 221.274 78.544C221.407 78.6671 221.473 78.8162 221.473 78.9914C221.473 79.1642 221.407 79.3134 221.274 79.4389C221.144 79.562 220.987 79.6235 220.802 79.6235ZM224.854 86.0298C224.326 86.0298 223.871 85.9102 223.49 85.6711C223.111 85.4296 222.82 85.097 222.616 84.6732C222.413 84.2495 222.311 83.7641 222.311 83.2173C222.311 82.6633 222.415 82.1744 222.623 81.7506C222.832 81.3245 223.125 80.9919 223.504 80.7528C223.883 80.5137 224.329 80.3941 224.843 80.3941C225.257 80.3941 225.627 80.4711 225.951 80.6249C226.275 80.7764 226.537 80.9895 226.736 81.2641C226.937 81.5388 227.056 81.8595 227.094 82.2265H226.061C226.004 81.9708 225.874 81.7506 225.67 81.566C225.469 81.3813 225.199 81.289 224.861 81.289C224.565 81.289 224.305 81.3671 224.083 81.5234C223.863 81.6773 223.691 81.8974 223.568 82.1839C223.445 82.468 223.383 82.8041 223.383 83.1924C223.383 83.5901 223.444 83.9334 223.564 84.2222C223.685 84.5111 223.856 84.7348 224.076 84.8934C224.298 85.052 224.56 85.1313 224.861 85.1313C225.062 85.1313 225.244 85.0946 225.408 85.0212C225.573 84.9455 225.712 84.8378 225.823 84.6981C225.937 84.5584 226.016 84.3903 226.061 84.1938H227.094C227.056 84.5466 226.942 84.8614 226.75 85.1384C226.558 85.4154 226.301 85.6332 225.979 85.7918C225.66 85.9505 225.284 86.0298 224.854 86.0298ZM230.381 86.0298C229.843 86.0298 229.38 85.9149 228.992 85.6853C228.606 85.4533 228.308 85.1278 228.097 84.7087C227.889 84.2873 227.785 83.7937 227.785 83.2279C227.785 82.6692 227.889 82.1768 228.097 81.7506C228.308 81.3245 228.602 80.9919 228.978 80.7528C229.357 80.5137 229.799 80.3941 230.306 80.3941C230.614 80.3941 230.912 80.445 231.201 80.5468C231.49 80.6486 231.749 80.8084 231.979 81.0262C232.208 81.244 232.389 81.5269 232.522 81.8749C232.655 82.2206 232.721 82.6408 232.721 83.1356V83.512H228.385V82.7166H231.68C231.68 82.4372 231.624 82.1898 231.51 81.9744C231.396 81.7566 231.236 81.5849 231.031 81.4595C230.827 81.334 230.588 81.2712 230.313 81.2712C230.015 81.2712 229.754 81.3446 229.532 81.4914C229.312 81.6358 229.141 81.8252 229.021 82.0596C228.902 82.2916 228.843 82.5437 228.843 82.816V83.4374C228.843 83.802 228.907 84.1121 229.035 84.3678C229.165 84.6235 229.346 84.8188 229.578 84.9538C229.81 85.0863 230.081 85.1526 230.391 85.1526C230.593 85.1526 230.776 85.1242 230.942 85.0674C231.107 85.0082 231.251 84.9206 231.371 84.8046C231.492 84.6886 231.584 84.5454 231.648 84.3749L232.653 84.556C232.573 84.852 232.428 85.1112 232.22 85.3337C232.014 85.5539 231.755 85.7255 231.442 85.8487C231.132 85.9694 230.778 86.0298 230.381 86.0298Z" fill="#374151"/>
<mask id="path-30-outside-4_646_1080" maskUnits="userSpaceOnUse" x="144" y="103.92" width="100" height="21" fill="black">
<rect fill="white" x="144" y="103.92" width="100" height="21"/>
<path d="M144 103.92H244V123.92H144V103.92Z"/>
</mask>
<path d="M244 123.92V122.92H144V123.92V124.92H244V123.92Z" fill="#E5E7EB" mask="url(#path-30-outside-4_646_1080)"/>
<rect x="144" y="103.92" width="16" height="16" rx="8" fill="#FBBF24"/>
<path d="M156.804 110.375L151.454 115.725C151.329 115.85 151.16 115.92 150.983 115.92C150.806 115.92 150.637 115.85 150.512 115.725L147.527 112.725C147.403 112.6 147.333 112.43 147.333 112.254C147.333 112.077 147.403 111.908 147.527 111.783L148.361 110.949C148.486 110.825 148.655 110.755 148.831 110.755C149.007 110.755 149.177 110.825 149.302 110.949L151 112.596L155.031 108.614C155.156 108.489 155.325 108.419 155.502 108.419C155.678 108.419 155.847 108.489 155.972 108.614L156.804 109.428C156.866 109.49 156.916 109.564 156.95 109.645C156.984 109.726 157.001 109.813 157.001 109.901C157.001 109.989 156.984 110.076 156.95 110.158C156.916 110.239 156.867 110.313 156.804 110.375Z" fill="white"/>
<path d="M166.799 115.92V108.647H169.391C169.957 108.647 170.426 108.75 170.798 108.956C171.169 109.162 171.447 109.444 171.632 109.801C171.817 110.156 171.909 110.556 171.909 111.001C171.909 111.449 171.816 111.851 171.629 112.209C171.444 112.564 171.165 112.846 170.79 113.054C170.419 113.26 169.951 113.363 169.388 113.363H167.605V112.432H169.288C169.646 112.432 169.936 112.371 170.158 112.248C170.381 112.122 170.544 111.952 170.648 111.736C170.753 111.521 170.805 111.276 170.805 111.001C170.805 110.727 170.753 110.483 170.648 110.27C170.544 110.057 170.38 109.89 170.155 109.769C169.932 109.648 169.639 109.588 169.274 109.588H167.896V115.92H166.799ZM172.91 115.92V110.465H173.937V111.332H173.993C174.093 111.038 174.268 110.807 174.519 110.639C174.772 110.469 175.059 110.383 175.378 110.383C175.445 110.383 175.523 110.386 175.613 110.391C175.705 110.395 175.777 110.401 175.829 110.408V111.424C175.787 111.412 175.711 111.399 175.602 111.385C175.493 111.368 175.384 111.36 175.275 111.36C175.024 111.36 174.801 111.413 174.604 111.52C174.41 111.624 174.256 111.77 174.143 111.957C174.029 112.141 173.972 112.352 173.972 112.589V115.92H172.91ZM178.65 116.03C178.139 116.03 177.693 115.913 177.312 115.678C176.93 115.444 176.635 115.116 176.424 114.695C176.213 114.273 176.108 113.781 176.108 113.217C176.108 112.651 176.213 112.157 176.424 111.733C176.635 111.309 176.93 110.98 177.312 110.746C177.693 110.511 178.139 110.394 178.65 110.394C179.162 110.394 179.608 110.511 179.989 110.746C180.37 110.98 180.666 111.309 180.877 111.733C181.088 112.157 181.193 112.651 181.193 113.217C181.193 113.781 181.088 114.273 180.877 114.695C180.666 115.116 180.37 115.444 179.989 115.678C179.608 115.913 179.162 116.03 178.65 116.03ZM178.654 115.138C178.985 115.138 179.26 115.051 179.478 114.876C179.696 114.7 179.857 114.467 179.961 114.176C180.067 113.885 180.121 113.564 180.121 113.214C180.121 112.866 180.067 112.546 179.961 112.255C179.857 111.961 179.696 111.726 179.478 111.548C179.26 111.371 178.985 111.282 178.654 111.282C178.32 111.282 178.043 111.371 177.823 111.548C177.605 111.726 177.443 111.961 177.337 112.255C177.232 112.546 177.18 112.866 177.18 113.214C177.18 113.564 177.232 113.885 177.337 114.176C177.443 114.467 177.605 114.7 177.823 114.876C178.043 115.051 178.32 115.138 178.654 115.138ZM182.178 110.465H183.24V116.275C183.24 116.639 183.174 116.947 183.041 117.198C182.911 117.449 182.717 117.64 182.459 117.77C182.203 117.9 181.887 117.965 181.511 117.965C181.473 117.965 181.437 117.965 181.404 117.965C181.369 117.965 181.332 117.964 181.294 117.962V117.049C181.327 117.049 181.357 117.049 181.383 117.049C181.406 117.049 181.434 117.049 181.464 117.049C181.715 117.049 181.897 116.981 182.008 116.847C182.121 116.714 182.178 116.521 182.178 116.268V110.465ZM182.704 109.624C182.519 109.624 182.361 109.562 182.228 109.439C182.098 109.313 182.033 109.164 182.033 108.991C182.033 108.816 182.098 108.667 182.228 108.544C182.361 108.418 182.519 108.356 182.704 108.356C182.888 108.356 183.046 108.418 183.176 108.544C183.309 108.667 183.375 108.816 183.375 108.991C183.375 109.164 183.309 109.313 183.176 109.439C183.046 109.562 182.888 109.624 182.704 109.624ZM186.819 116.03C186.282 116.03 185.819 115.915 185.431 115.685C185.045 115.453 184.747 115.128 184.536 114.709C184.328 114.287 184.223 113.794 184.223 113.228C184.223 112.669 184.328 112.177 184.536 111.751C184.747 111.325 185.04 110.992 185.417 110.753C185.795 110.514 186.238 110.394 186.745 110.394C187.053 110.394 187.351 110.445 187.64 110.547C187.928 110.649 188.188 110.808 188.417 111.026C188.647 111.244 188.828 111.527 188.961 111.875C189.093 112.221 189.16 112.641 189.16 113.136V113.512H184.824V112.717H188.119C188.119 112.437 188.062 112.19 187.949 111.974C187.835 111.757 187.675 111.585 187.469 111.459C187.266 111.334 187.026 111.271 186.752 111.271C186.454 111.271 186.193 111.345 185.971 111.491C185.75 111.636 185.58 111.825 185.459 112.06C185.341 112.292 185.282 112.544 185.282 112.816V113.437C185.282 113.802 185.346 114.112 185.473 114.368C185.604 114.624 185.785 114.819 186.017 114.954C186.249 115.086 186.52 115.153 186.83 115.153C187.031 115.153 187.215 115.124 187.38 115.067C187.546 115.008 187.689 114.921 187.81 114.805C187.931 114.689 188.023 114.545 188.087 114.375L189.092 114.556C189.012 114.852 188.867 115.111 188.659 115.334C188.453 115.554 188.194 115.726 187.881 115.849C187.571 115.969 187.217 116.03 186.819 116.03ZM192.435 116.03C191.907 116.03 191.453 115.91 191.072 115.671C190.693 115.43 190.402 115.097 190.198 114.673C189.994 114.249 189.893 113.764 189.893 113.217C189.893 112.663 189.997 112.174 190.205 111.751C190.413 111.325 190.707 110.992 191.086 110.753C191.465 110.514 191.911 110.394 192.425 110.394C192.839 110.394 193.208 110.471 193.532 110.625C193.857 110.776 194.118 110.99 194.317 111.264C194.519 111.539 194.638 111.86 194.676 112.226H193.643C193.586 111.971 193.456 111.751 193.252 111.566C193.051 111.381 192.781 111.289 192.442 111.289C192.146 111.289 191.887 111.367 191.665 111.523C191.444 111.677 191.273 111.897 191.15 112.184C191.027 112.468 190.965 112.804 190.965 113.192C190.965 113.59 191.025 113.933 191.146 114.222C191.267 114.511 191.437 114.735 191.657 114.893C191.88 115.052 192.142 115.131 192.442 115.131C192.644 115.131 192.826 115.095 192.989 115.021C193.155 114.945 193.293 114.838 193.405 114.698C193.518 114.558 193.598 114.39 193.643 114.194H194.676C194.638 114.547 194.523 114.861 194.331 115.138C194.14 115.415 193.883 115.633 193.561 115.792C193.241 115.95 192.866 116.03 192.435 116.03ZM198.158 110.465V111.317H195.178V110.465H198.158ZM195.977 109.158H197.039V114.318C197.039 114.524 197.07 114.679 197.131 114.783C197.193 114.885 197.272 114.955 197.369 114.993C197.469 115.028 197.576 115.046 197.692 115.046C197.778 115.046 197.852 115.04 197.916 115.028C197.98 115.017 198.03 115.007 198.065 115L198.257 115.877C198.195 115.901 198.108 115.924 197.994 115.948C197.881 115.974 197.739 115.988 197.568 115.991C197.289 115.995 197.028 115.946 196.787 115.842C196.545 115.737 196.35 115.576 196.201 115.359C196.052 115.141 195.977 114.867 195.977 114.538V109.158ZM202.16 112.386V113.306H198.936V112.386H202.16ZM203.461 115.92V108.647H204.523V111.349H204.586C204.648 111.236 204.737 111.104 204.853 110.955C204.969 110.806 205.13 110.676 205.336 110.565C205.542 110.451 205.814 110.394 206.152 110.394C206.593 110.394 206.986 110.505 207.331 110.728C207.677 110.95 207.948 111.271 208.145 111.69C208.344 112.109 208.443 112.614 208.443 113.203C208.443 113.793 208.345 114.298 208.148 114.719C207.952 115.138 207.682 115.462 207.339 115.689C206.995 115.914 206.603 116.026 206.163 116.026C205.832 116.026 205.561 115.971 205.35 115.859C205.142 115.748 204.978 115.618 204.86 115.469C204.742 115.32 204.65 115.187 204.586 115.071H204.498V115.92H203.461ZM204.501 113.192C204.501 113.576 204.557 113.912 204.668 114.201C204.779 114.49 204.94 114.716 205.151 114.879C205.362 115.04 205.62 115.121 205.925 115.121C206.242 115.121 206.508 115.037 206.721 114.869C206.934 114.698 207.095 114.467 207.204 114.176C207.315 113.885 207.371 113.557 207.371 113.192C207.371 112.833 207.316 112.509 207.207 112.223C207.101 111.936 206.94 111.71 206.724 111.545C206.511 111.379 206.245 111.296 205.925 111.296C205.617 111.296 205.357 111.375 205.144 111.534C204.933 111.693 204.773 111.914 204.665 112.198C204.556 112.482 204.501 112.814 204.501 113.192ZM211.023 116.04C210.677 116.04 210.364 115.976 210.085 115.849C209.806 115.718 209.584 115.53 209.421 115.284C209.26 115.038 209.18 114.736 209.18 114.378C209.18 114.071 209.239 113.817 209.357 113.619C209.476 113.42 209.635 113.262 209.837 113.146C210.038 113.03 210.263 112.943 210.511 112.883C210.76 112.824 211.013 112.779 211.271 112.749C211.598 112.711 211.863 112.68 212.067 112.656C212.27 112.63 212.418 112.589 212.511 112.532C212.603 112.475 212.649 112.383 212.649 112.255V112.23C212.649 111.92 212.561 111.68 212.386 111.509C212.213 111.339 211.955 111.253 211.612 111.253C211.255 111.253 210.973 111.333 210.767 111.491C210.563 111.648 210.422 111.822 210.344 112.013L209.346 111.786C209.465 111.455 209.638 111.187 209.865 110.984C210.095 110.778 210.359 110.628 210.657 110.536C210.955 110.441 211.269 110.394 211.598 110.394C211.816 110.394 212.047 110.42 212.29 110.472C212.537 110.522 212.766 110.614 212.979 110.749C213.195 110.884 213.371 111.077 213.508 111.328C213.646 111.577 213.714 111.9 213.714 112.298V115.92H212.677V115.174H212.635C212.566 115.311 212.463 115.446 212.326 115.579C212.189 115.711 212.012 115.821 211.797 115.909C211.581 115.997 211.323 116.04 211.023 116.04ZM211.253 115.188C211.547 115.188 211.798 115.13 212.006 115.014C212.217 114.898 212.377 114.747 212.486 114.56C212.597 114.37 212.653 114.168 212.653 113.952V113.249C212.615 113.287 212.541 113.323 212.432 113.356C212.326 113.387 212.204 113.414 212.067 113.437C211.929 113.459 211.796 113.479 211.665 113.498C211.535 113.514 211.426 113.529 211.339 113.54C211.133 113.566 210.944 113.61 210.774 113.672C210.606 113.733 210.471 113.822 210.369 113.938C210.27 114.052 210.22 114.203 210.22 114.393C210.22 114.655 210.317 114.854 210.511 114.989C210.705 115.122 210.953 115.188 211.253 115.188ZM219.016 111.797L218.054 111.967C218.013 111.844 217.949 111.727 217.862 111.616C217.777 111.504 217.661 111.413 217.514 111.342C217.367 111.271 217.184 111.236 216.963 111.236C216.663 111.236 216.412 111.303 216.211 111.438C216.009 111.571 215.909 111.742 215.909 111.953C215.909 112.135 215.976 112.282 216.111 112.393C216.246 112.505 216.464 112.596 216.765 112.667L217.631 112.866C218.133 112.982 218.507 113.16 218.753 113.402C218.999 113.643 219.123 113.957 219.123 114.343C219.123 114.67 219.028 114.961 218.838 115.217C218.651 115.47 218.39 115.669 218.054 115.813C217.72 115.958 217.333 116.03 216.892 116.03C216.282 116.03 215.783 115.9 215.397 115.639C215.011 115.376 214.775 115.003 214.687 114.521L215.713 114.364C215.777 114.632 215.909 114.834 216.108 114.972C216.306 115.106 216.566 115.174 216.885 115.174C217.233 115.174 217.511 115.102 217.72 114.957C217.928 114.811 218.032 114.632 218.032 114.421C218.032 114.251 217.968 114.107 217.841 113.991C217.715 113.875 217.522 113.788 217.262 113.729L216.338 113.526C215.829 113.41 215.453 113.226 215.209 112.972C214.968 112.719 214.847 112.398 214.847 112.01C214.847 111.688 214.937 111.406 215.117 111.165C215.297 110.923 215.545 110.735 215.863 110.6C216.18 110.463 216.543 110.394 216.953 110.394C217.542 110.394 218.006 110.522 218.345 110.778C218.683 111.031 218.907 111.371 219.016 111.797ZM222.441 116.03C221.903 116.03 221.441 115.915 221.052 115.685C220.666 115.453 220.368 115.128 220.157 114.709C219.949 114.287 219.845 113.794 219.845 113.228C219.845 112.669 219.949 112.177 220.157 111.751C220.368 111.325 220.662 110.992 221.038 110.753C221.417 110.514 221.86 110.394 222.366 110.394C222.674 110.394 222.972 110.445 223.261 110.547C223.55 110.649 223.809 110.808 224.039 111.026C224.268 111.244 224.45 111.527 224.582 111.875C224.715 112.221 224.781 112.641 224.781 113.136V113.512H220.445V112.717H223.741C223.741 112.437 223.684 112.19 223.57 111.974C223.456 111.757 223.297 111.585 223.091 111.459C222.887 111.334 222.648 111.271 222.373 111.271C222.075 111.271 221.815 111.345 221.592 111.491C221.372 111.636 221.201 111.825 221.081 112.06C220.962 112.292 220.903 112.544 220.903 112.816V113.437C220.903 113.802 220.967 114.112 221.095 114.368C221.225 114.624 221.406 114.819 221.638 114.954C221.87 115.086 222.141 115.153 222.451 115.153C222.653 115.153 222.836 115.124 223.002 115.067C223.168 115.008 223.311 114.921 223.432 114.805C223.552 114.689 223.645 114.545 223.709 114.375L224.714 114.556C224.633 114.852 224.489 115.111 224.28 115.334C224.074 115.554 223.815 115.726 223.503 115.849C223.192 115.969 222.839 116.03 222.441 116.03ZM227.801 116.026C227.361 116.026 226.968 115.914 226.622 115.689C226.279 115.462 226.009 115.138 225.812 114.719C225.618 114.298 225.521 113.793 225.521 113.203C225.521 112.614 225.619 112.109 225.816 111.69C226.015 111.271 226.287 110.95 226.633 110.728C226.978 110.505 227.37 110.394 227.808 110.394C228.147 110.394 228.419 110.451 228.625 110.565C228.833 110.676 228.994 110.806 229.108 110.955C229.224 111.104 229.314 111.236 229.378 111.349H229.442V108.647H230.503V115.92H229.466V115.071H229.378C229.314 115.187 229.221 115.32 229.101 115.469C228.982 115.618 228.819 115.748 228.611 115.859C228.402 115.971 228.132 116.026 227.801 116.026ZM228.035 115.121C228.341 115.121 228.599 115.04 228.81 114.879C229.023 114.716 229.184 114.49 229.292 114.201C229.404 113.912 229.459 113.576 229.459 113.192C229.459 112.814 229.405 112.482 229.296 112.198C229.187 111.914 229.027 111.693 228.817 111.534C228.606 111.375 228.346 111.296 228.035 111.296C227.716 111.296 227.449 111.379 227.236 111.545C227.023 111.71 226.862 111.936 226.753 112.223C226.647 112.509 226.594 112.833 226.594 113.192C226.594 113.557 226.648 113.885 226.757 114.176C226.866 114.467 227.027 114.698 227.24 114.869C227.455 115.037 227.721 115.121 228.035 115.121Z" fill="#374151"/>
<rect x="27" y="43.9197" width="103" height="62" rx="5.64987" fill="#F3F4F6"/>
<path d="M86.2783 74.9197C86.2788 75.1473 86.2234 75.3712 86.1175 75.5696C86.0116 75.7679 85.8587 75.9341 85.6738 76.0518L74.2129 83.4373C74.0196 83.5619 73.7983 83.63 73.5718 83.6344C73.3453 83.6388 73.1217 83.5794 72.9242 83.4624C72.7286 83.3472 72.5657 83.1792 72.4522 82.9757C72.3387 82.7722 72.2786 82.5405 72.2783 82.3044V67.535C72.2786 67.299 72.3387 67.0673 72.4522 66.8638C72.5657 66.6602 72.7286 66.4922 72.9242 66.377C73.1217 66.26 73.3453 66.2006 73.5718 66.2051C73.7983 66.2095 74.0196 66.2775 74.2129 66.4022L85.6738 73.7877C85.8587 73.9054 86.0116 74.0715 86.1175 74.2699C86.2234 74.4682 86.2788 74.6921 86.2783 74.9197Z" fill="#9CA3AF"/>
<rect x="27" y="120.92" width="101" height="5" rx="2.5" fill="#F3F4F6"/>
<rect x="27" y="120.92" width="39.6362" height="5" rx="2.5" fill="#D1D5DB"/>
<g filter="url(#filter0_i_646_1080)">
<rect x="48.895" y="117.92" width="10" height="10" rx="5" fill="#D1D5DB"/>
</g>
</g>
<path d="M256.25 31.623V128.873C256.25 132.877 253.004 136.123 249 136.123H23C18.9959 136.123 15.75 132.877 15.75 128.873V31.623H256.25Z" stroke="#E5E7EB" stroke-width="1.5"/>
<defs>
<filter id="filter0_i_646_1080" x="47.669" y="117.92" width="11.226" height="11.226" filterUnits="userSpaceOnUse" color-interpolation-filters="sRGB">
<feFlood flood-opacity="0" result="BackgroundImageFix"/>
<feBlend mode="normal" in="SourceGraphic" in2="BackgroundImageFix" result="shape"/>
<feColorMatrix in="SourceAlpha" type="matrix" values="0 0 0 0 0 0 0 0 0 0 0 0 0 0 0 0 0 0 127 0" result="hardAlpha"/>
<feOffset dx="-1.22601" dy="1.22601"/>
<feGaussianBlur stdDeviation="0.613003"/>
<feComposite in2="hardAlpha" operator="arithmetic" k2="-1" k3="1"/>
<feColorMatrix type="matrix" values="0 0 0 0 1 0 0 0 0 1 0 0 0 0 1 0 0 0 0.25 0"/>
<feBlend mode="normal" in2="shape" result="effect1_innerShadow_646_1080"/>
</filter>
<clipPath id="clip0_646_1080">
<path d="M15 30.873H257V128.873C257 133.291 253.418 136.873 249 136.873H23C18.5817 136.873 15 133.291 15 128.873V30.873Z" fill="white"/>
</clipPath>
</defs>
</svg>
