<svg width="296" height="142" viewBox="0 0 296 142" fill="none" xmlns="http://www.w3.org/2000/svg">
<g clip-path="url(#clip0_68_7924)">
<rect width="26.4504" height="129.847" transform="translate(40.8015 6.07642)" fill="#E5E7EB"/>
<path d="M62.2447 17.2809C62.2447 12.0245 62.2447 9.39623 62.6452 7.38751C62.9975 5.62139 63.5596 4.18549 64.251 3.28559C65.0373 2.26245 66.0662 2.26245 68.1238 2.26245H78.4123C80.47 2.26245 81.4988 2.26245 82.2852 3.28559C82.9765 4.18549 83.5386 5.62139 83.8909 7.38751C84.2914 9.39623 84.2914 12.0245 84.2914 17.2809V79.725C84.2914 82.0059 84.2914 83.1464 84.1059 83.7706C84.0257 84.0421 83.9233 84.2658 83.806 84.4262C83.6886 84.5867 83.559 84.68 83.4261 84.6999C83.1193 84.7468 82.7481 84.1132 82.0059 82.8507L73.0409 76.6016L64.5302 82.846C63.788 84.1132 63.4169 84.7468 63.1082 84.6999C62.9756 84.6794 62.8464 84.5857 62.7293 84.4253C62.6123 84.2648 62.5103 84.0415 62.4303 83.7706C62.2447 83.1464 62.2447 82.0059 62.2447 79.725V17.2809Z" fill="#FBBF24" stroke="#374151" stroke-width="1.20229" stroke-linecap="round" stroke-linejoin="round"/>
<g clip-path="url(#clip1_68_7924)">
<path d="M69.5733 39.6027L69.5713 39.6043C68.6128 40.4578 67.3939 40.9639 66.1125 41.0372C64.7987 41.1423 64.1417 41.1958 63.5952 41.3889C62.9701 41.6099 62.4023 41.9678 61.9333 42.4365C61.4644 42.9051 61.1061 43.4727 60.8847 44.0976C60.6916 44.6459 60.6381 45.3029 60.533 46.615C60.4261 47.9668 59.9967 49.022 59.1001 50.0755L59.0985 50.0775C58.2461 51.0779 57.8189 51.5793 57.569 52.1032C57.2833 52.7013 57.1349 53.3557 57.1346 54.0186C57.1343 54.6814 57.2821 55.336 57.5673 55.9344C57.819 56.4585 58.2467 56.9603 59.1019 57.962C59.9553 58.9206 60.4597 60.1395 60.533 61.4208C60.6381 62.7347 60.6916 63.3916 60.8847 63.9382C61.1057 64.5633 61.4636 65.1311 61.9323 65.6C62.4009 66.069 62.9685 66.4273 63.5934 66.6486C64.1417 66.8418 64.7987 66.8952 66.1108 67.0004C67.3929 67.0738 68.6126 67.5788 69.5713 68.4332L69.5733 68.4349C70.5737 69.2873 71.0752 69.7145 71.599 69.9643C72.1972 70.2498 72.8517 70.3979 73.5146 70.3979C74.1774 70.3979 74.8319 70.2498 75.4302 69.9643C75.9543 69.7143 76.4561 69.2867 77.4579 68.4315C78.4907 67.5521 79.5373 67.109 80.9166 67.0004C82.2305 66.8952 82.8874 66.8418 83.434 66.6486C84.0591 66.4277 84.6269 66.0697 85.0958 65.6011C85.5648 65.1324 85.9231 64.5649 86.1445 63.9399C86.3376 63.3916 86.391 62.7347 86.4962 61.4225C86.5696 60.1404 87.0746 58.9208 87.929 57.962L87.9307 57.9601C88.7831 56.9596 89.2103 56.4582 89.4601 55.9344C90.0395 54.724 90.0395 53.3153 89.4601 52.1032C89.2101 51.579 88.7825 51.0773 87.9273 50.0755C87.0479 49.0427 86.6048 47.9961 86.4962 46.6167C86.391 45.3029 86.3376 44.6459 86.1445 44.0994C85.6979 42.8321 84.7013 41.8372 83.4357 41.3889C82.8874 41.1958 82.2305 41.1423 80.9184 41.0372C79.539 40.9285 78.4907 40.4837 77.4579 39.6043L77.4559 39.6026C76.4554 38.7503 75.954 38.3231 75.4302 38.0732C74.8319 37.7878 74.1774 37.6396 73.5146 37.6396C72.8517 37.6396 72.1972 37.7878 71.599 38.0732C71.0752 38.3231 70.5737 38.7503 69.5733 39.6027Z" fill="white" stroke="#374151" stroke-width="1.60305" stroke-linecap="round" stroke-linejoin="round"/>
<rect x="64.2975" y="44.8014" width="18.4351" height="18.4351" rx="9.21756" fill="#FBBF24"/>
<rect x="64.2975" y="44.8014" width="18.4351" height="18.4351" rx="9.21756" stroke="#374151" stroke-width="0.801527"/>
<g clip-path="url(#clip2_68_7924)">
<path d="M73.5149 49.7175C73.574 49.7175 73.6359 49.7334 73.7024 49.7712C73.7546 49.801 73.7956 49.8458 73.8244 49.9148V49.9158L74.8264 52.2937L74.8733 52.405L74.9934 52.4158L77.5735 52.6414H77.5744C77.673 52.6554 77.731 52.6841 77.7649 52.7136C77.8081 52.7515 77.8431 52.8025 77.8684 52.8718C77.891 52.9341 77.8953 52.9963 77.8811 53.0623C77.8691 53.1176 77.839 53.1726 77.7766 53.2283L75.8157 54.9226L75.7239 55.0017L75.7512 55.1199L76.3391 57.6453C76.357 57.7233 76.3487 57.781 76.3264 57.8279C76.2951 57.8937 76.2521 57.9468 76.1975 57.989C76.1497 58.0258 76.0934 58.0483 76.0227 58.0544C75.9636 58.0596 75.9051 58.0456 75.841 58.0046L75.8362 58.0017L73.6184 56.6667L73.5149 56.6042L73.4114 56.6667L71.1946 58.0017L71.1897 58.0046C71.1255 58.0454 71.0665 58.0594 71.0071 58.0544C70.9368 58.0486 70.8809 58.026 70.8332 57.989C70.7781 57.9462 70.7347 57.8926 70.7033 57.8269C70.6814 57.7807 70.6737 57.7236 70.6916 57.6453L71.2785 55.1199L71.3069 55.0017L71.2151 54.9226L69.2512 53.2263C69.1909 53.1711 69.1614 53.1161 69.1496 53.0613C69.1355 52.9952 69.1391 52.9335 69.1614 52.8718C69.1862 52.8031 69.222 52.752 69.2658 52.7136C69.2915 52.6913 69.3302 52.6693 69.3889 52.6541L69.4553 52.6414L72.0364 52.4158L72.1565 52.405L72.2033 52.2937L73.2053 49.9158L73.2063 49.9148C73.2351 49.8458 73.2752 49.801 73.3274 49.7712C73.3939 49.7333 73.4557 49.7176 73.5149 49.7175Z" fill="white" stroke="#374151" stroke-width="0.400763"/>
</g>
</g>
<rect x="109.733" y="100.656" width="32.0611" height="2.40458" rx="1.20229" fill="#E5E7EB"/>
<rect x="101.718" y="107.069" width="48.0916" height="2.40458" rx="1.20229" fill="#E5E7EB"/>
<rect x="109.733" y="113.481" width="32.0611" height="2.40458" rx="1.20229" fill="#E5E7EB"/>
<rect x="126.565" y="62.6604" width="83.3588" height="3.20611" rx="1.60305" fill="#E5E7EB"/>
<rect x="111.336" y="73.8821" width="113.817" height="3.20611" rx="1.60305" fill="#E5E7EB"/>
<path d="M130.581 32.8233H129.304C129.267 32.6138 129.2 32.4282 129.102 32.2665C129.004 32.1026 128.882 31.9637 128.737 31.8498C128.591 31.736 128.425 31.6506 128.238 31.5937C128.054 31.5345 127.854 31.5049 127.64 31.5049C127.26 31.5049 126.923 31.6005 126.629 31.7918C126.335 31.9808 126.106 32.2586 125.939 32.6252C125.773 32.9895 125.69 33.4347 125.69 33.9607C125.69 34.4958 125.773 34.9466 125.939 35.3133C126.108 35.6776 126.338 35.9531 126.629 36.1398C126.923 36.3243 127.259 36.4165 127.637 36.4165C127.846 36.4165 128.042 36.3892 128.224 36.3345C128.409 36.2776 128.574 36.1945 128.72 36.0852C128.868 35.9759 128.992 35.8415 129.092 35.6821C129.194 35.5227 129.265 35.3406 129.304 35.1356L130.581 35.1425C130.533 35.4749 130.43 35.7869 130.27 36.0784C130.113 36.3698 129.907 36.6271 129.652 36.8503C129.397 37.0712 129.099 37.2442 128.757 37.3694C128.416 37.4924 128.036 37.5539 127.62 37.5539C127.005 37.5539 126.456 37.4116 125.973 37.1269C125.491 36.8423 125.11 36.4313 124.833 35.8939C124.555 35.3565 124.416 34.7121 124.416 33.9607C124.416 33.207 124.556 32.5626 124.836 32.0275C125.116 31.4901 125.498 31.0791 125.98 30.7944C126.463 30.5098 127.009 30.3675 127.62 30.3675C128.009 30.3675 128.371 30.4221 128.706 30.5314C129.041 30.6407 129.339 30.8013 129.601 31.013C129.863 31.2225 130.078 31.4798 130.246 31.7849C130.417 32.0878 130.529 32.4339 130.581 32.8233ZM134.242 37.4583V30.4631H138.792V31.5254H135.509V33.4244H138.556V34.4867H135.509V36.396H138.819V37.4583H134.242ZM142.585 37.4583V30.4631H145.209C145.746 30.4631 146.197 30.5565 146.561 30.7432C146.928 30.9299 147.204 31.1918 147.391 31.5288C147.58 31.8635 147.675 32.254 147.675 32.7003C147.675 33.1489 147.579 33.5383 147.388 33.8685C147.199 34.1964 146.92 34.4502 146.551 34.6301C146.182 34.8077 145.729 34.8966 145.192 34.8966H143.323V33.8446H145.021C145.335 33.8446 145.592 33.8013 145.793 33.7148C145.993 33.626 146.141 33.4973 146.237 33.3288C146.335 33.158 146.384 32.9485 146.384 32.7003C146.384 32.4521 146.335 32.2404 146.237 32.065C146.139 31.8874 145.99 31.7531 145.789 31.662C145.589 31.5686 145.33 31.5219 145.014 31.5219H143.853V37.4583H142.585ZM146.199 34.2886L147.931 37.4583H146.517L144.816 34.2886H146.199ZM151.034 31.5254V30.4631H156.616V31.5254H154.453V37.4583H153.197V31.5254H151.034ZM161.459 30.4631V37.4583H160.192V30.4631H161.459ZM165.332 37.4583V30.4631H169.814V31.5254H166.6V33.4244H169.506V34.4867H166.6V37.4583H165.332ZM174.736 30.4631V37.4583H173.469V30.4631H174.736ZM184.597 32.8233H183.319C183.283 32.6138 183.216 32.4282 183.118 32.2665C183.02 32.1026 182.898 31.9637 182.752 31.8498C182.606 31.736 182.44 31.6506 182.253 31.5937C182.069 31.5345 181.87 31.5049 181.656 31.5049C181.275 31.5049 180.938 31.6005 180.645 31.7918C180.351 31.9808 180.121 32.2586 179.955 32.6252C179.789 32.9895 179.705 33.4347 179.705 33.9607C179.705 34.4958 179.789 34.9466 179.955 35.3133C180.123 35.6776 180.353 35.9531 180.645 36.1398C180.938 36.3243 181.274 36.4165 181.652 36.4165C181.862 36.4165 182.058 36.3892 182.24 36.3345C182.424 36.2776 182.589 36.1945 182.735 36.0852C182.883 35.9759 183.007 35.8415 183.107 35.6821C183.21 35.5227 183.28 35.3406 183.319 35.1356L184.597 35.1425C184.549 35.4749 184.445 35.7869 184.286 36.0784C184.129 36.3698 183.923 36.6271 183.668 36.8503C183.413 37.0712 183.114 37.2442 182.773 37.3694C182.431 37.4924 182.052 37.5539 181.635 37.5539C181.02 37.5539 180.472 37.4116 179.989 37.1269C179.506 36.8423 179.126 36.4313 178.848 35.8939C178.57 35.3565 178.431 34.7121 178.431 33.9607C178.431 33.207 178.571 32.5626 178.852 32.0275C179.132 31.4901 179.513 31.0791 179.996 30.7944C180.479 30.5098 181.025 30.3675 181.635 30.3675C182.025 30.3675 182.387 30.4221 182.721 30.5314C183.056 30.6407 183.354 30.8013 183.616 31.013C183.878 31.2225 184.093 31.4798 184.262 31.7849C184.433 32.0878 184.544 32.4339 184.597 32.8233ZM189.072 37.4583H187.719L190.182 30.4631H191.746L194.212 37.4583H192.859L190.991 31.8977H190.936L189.072 37.4583ZM189.116 34.7155H192.805V35.7334H189.116V34.7155ZM196.481 31.5254V30.4631H202.062V31.5254H199.9V37.4583H198.643V31.5254H196.481ZM205.639 37.4583V30.4631H210.189V31.5254H206.906V33.4244H209.953V34.4867H206.906V36.396H210.216V37.4583H205.639Z" fill="#374151"/>
<path d="M142.566 46.8934C142.566 47.3959 142.472 47.8262 142.284 48.1845C142.097 48.5412 141.842 48.8145 141.518 49.0042C141.197 49.194 140.832 49.2889 140.423 49.2889C140.015 49.2889 139.649 49.194 139.326 49.0042C139.004 48.8129 138.749 48.5389 138.561 48.1822C138.374 47.8239 138.28 47.3943 138.28 46.8934C138.28 46.3909 138.374 45.9613 138.561 45.6046C138.749 45.2463 139.004 44.9723 139.326 44.7825C139.649 44.5928 140.015 44.4979 140.423 44.4979C140.832 44.4979 141.197 44.5928 141.518 44.7825C141.842 44.9723 142.097 45.2463 142.284 45.6046C142.472 45.9613 142.566 46.3909 142.566 46.8934ZM141.717 46.8934C141.717 46.5397 141.661 46.2414 141.55 45.9985C141.441 45.7541 141.289 45.5697 141.095 45.4452C140.901 45.3192 140.677 45.2562 140.423 45.2562C140.17 45.2562 139.946 45.3192 139.751 45.4452C139.557 45.5697 139.405 45.7541 139.294 45.9985C139.184 46.2414 139.13 46.5397 139.13 46.8934C139.13 47.2471 139.184 47.5461 139.294 47.7905C139.405 48.0334 139.557 48.2179 139.751 48.3439C139.946 48.4684 140.17 48.5306 140.423 48.5306C140.677 48.5306 140.901 48.4684 141.095 48.3439C141.289 48.2179 141.441 48.0334 141.55 47.7905C141.661 47.5461 141.717 47.2471 141.717 46.8934ZM143.749 49.2251V44.5617H146.737V45.2698H144.594V46.5359H146.532V47.2441H144.594V49.2251H143.749ZM153.858 46.1351H153.007C152.982 45.9955 152.937 45.8717 152.872 45.764C152.807 45.6547 152.726 45.5621 152.629 45.4862C152.531 45.4103 152.421 45.3533 152.296 45.3154C152.173 45.2759 152.04 45.2562 151.898 45.2562C151.644 45.2562 151.419 45.3199 151.224 45.4474C151.028 45.5734 150.874 45.7586 150.764 46.0031C150.653 46.2459 150.597 46.5427 150.597 46.8934C150.597 47.2501 150.653 47.5507 150.764 47.7951C150.876 48.038 151.029 48.2217 151.224 48.3462C151.419 48.4691 151.643 48.5306 151.895 48.5306C152.035 48.5306 152.166 48.5124 152.287 48.4759C152.41 48.438 152.52 48.3826 152.617 48.3097C152.716 48.2369 152.799 48.1473 152.865 48.041C152.934 47.9348 152.981 47.8133 153.007 47.6767L153.858 47.6812C153.826 47.9029 153.757 48.1109 153.651 48.3052C153.546 48.4995 153.409 48.671 153.239 48.8198C153.069 48.967 152.87 49.0824 152.642 49.1659C152.414 49.2479 152.162 49.2889 151.884 49.2889C151.474 49.2889 151.108 49.194 150.786 49.0042C150.465 48.8145 150.211 48.5405 150.026 48.1822C149.841 47.8239 149.748 47.3943 149.748 46.8934C149.748 46.3909 149.841 45.9613 150.028 45.6046C150.215 45.2463 150.469 44.9723 150.791 44.7825C151.113 44.5928 151.477 44.4979 151.884 44.4979C152.144 44.4979 152.385 44.5343 152.608 44.6072C152.831 44.6801 153.03 44.7871 153.205 44.9283C153.379 45.0679 153.523 45.2395 153.635 45.4429C153.749 45.6448 153.823 45.8755 153.858 46.1351ZM159.184 46.8934C159.184 47.3959 159.089 47.8262 158.901 48.1845C158.714 48.5412 158.459 48.8145 158.136 49.0042C157.814 49.194 157.449 49.2889 157.041 49.2889C156.632 49.2889 156.267 49.194 155.943 49.0042C155.621 48.8129 155.366 48.5389 155.178 48.1822C154.991 47.8239 154.898 47.3943 154.898 46.8934C154.898 46.3909 154.991 45.9613 155.178 45.6046C155.366 45.2463 155.621 44.9723 155.943 44.7825C156.267 44.5928 156.632 44.4979 157.041 44.4979C157.449 44.4979 157.814 44.5928 158.136 44.7825C158.459 44.9723 158.714 45.2463 158.901 45.6046C159.089 45.9613 159.184 46.3909 159.184 46.8934ZM158.334 46.8934C158.334 46.5397 158.279 46.2414 158.168 45.9985C158.059 45.7541 157.907 45.5697 157.713 45.4452C157.518 45.3192 157.294 45.2562 157.041 45.2562C156.787 45.2562 156.563 45.3192 156.369 45.4452C156.175 45.5697 156.022 45.7541 155.911 45.9985C155.802 46.2414 155.747 46.5397 155.747 46.8934C155.747 47.2471 155.802 47.5461 155.911 47.7905C156.022 48.0334 156.175 48.2179 156.369 48.3439C156.563 48.4684 156.787 48.5306 157.041 48.5306C157.294 48.5306 157.518 48.4684 157.713 48.3439C157.907 48.2179 158.059 48.0334 158.168 47.7905C158.279 47.5461 158.334 47.2471 158.334 46.8934ZM160.367 44.5617H161.401L162.785 47.9408H162.84L164.224 44.5617H165.258V49.2251H164.447V46.0213H164.404L163.115 49.2114H162.51L161.221 46.0144H161.178V49.2251H160.367V44.5617ZM166.563 49.2251V44.5617H168.312C168.67 44.5617 168.97 44.6285 169.213 44.7621C169.458 44.8956 169.642 45.0793 169.767 45.3131C169.893 45.5454 169.956 45.8095 169.956 46.1055C169.956 46.4046 169.893 46.6702 169.767 46.9025C169.641 47.1348 169.455 47.3177 169.209 47.4513C168.963 47.5833 168.66 47.6494 168.3 47.6494H167.141V46.9549H168.186C168.396 46.9549 168.567 46.9184 168.701 46.8456C168.835 46.7727 168.933 46.6725 168.997 46.545C169.062 46.4175 169.095 46.271 169.095 46.1055C169.095 45.9401 169.062 45.7943 168.997 45.6683C168.933 45.5423 168.834 45.4444 168.699 45.3746C168.565 45.3032 168.393 45.2676 168.182 45.2676H167.408V49.2251H166.563ZM171.074 49.2251V44.5617H171.919V48.5169H173.973V49.2251H171.074ZM175.091 49.2251V44.5617H178.124V45.2698H175.936V46.5359H177.967V47.2441H175.936V48.5169H178.142V49.2251H175.091ZM179.165 45.2698V44.5617H182.886V45.2698H181.445V49.2251H180.607V45.2698H179.165ZM184.833 44.5617V49.2251H183.988V44.5617H184.833ZM190.3 46.8934C190.3 47.3959 190.205 47.8262 190.017 48.1845C189.83 48.5412 189.575 48.8145 189.252 49.0042C188.93 49.194 188.565 49.2889 188.157 49.2889C187.749 49.2889 187.383 49.194 187.059 49.0042C186.737 48.8129 186.482 48.5389 186.294 48.1822C186.107 47.8239 186.014 47.3943 186.014 46.8934C186.014 46.3909 186.107 45.9613 186.294 45.6046C186.482 45.2463 186.737 44.9723 187.059 44.7825C187.383 44.5928 187.749 44.4979 188.157 44.4979C188.565 44.4979 188.93 44.5928 189.252 44.7825C189.575 44.9723 189.83 45.2463 190.017 45.6046C190.205 45.9613 190.3 46.3909 190.3 46.8934ZM189.45 46.8934C189.45 46.5397 189.395 46.2414 189.284 45.9985C189.175 45.7541 189.023 45.5697 188.829 45.4452C188.634 45.3192 188.41 45.2562 188.157 45.2562C187.903 45.2562 187.679 45.3192 187.485 45.4452C187.291 45.5697 187.138 45.7541 187.027 45.9985C186.918 46.2414 186.863 46.5397 186.863 46.8934C186.863 47.2471 186.918 47.5461 187.027 47.7905C187.138 48.0334 187.291 48.2179 187.485 48.3439C187.679 48.4684 187.903 48.5306 188.157 48.5306C188.41 48.5306 188.634 48.4684 188.829 48.3439C189.023 48.2179 189.175 48.0334 189.284 47.7905C189.395 47.5461 189.45 47.2471 189.45 46.8934ZM195.315 44.5617V49.2251H194.564L192.366 46.0486H192.328V49.2251H191.483V44.5617H192.239L194.434 47.7405H194.475V44.5617H195.315Z" fill="#9CA3AF"/>
<line x1="189.284" y1="113.982" x2="230.964" y2="113.982" stroke="#D1D5DB" stroke-width="1.60305" stroke-linecap="round"/>
</g>
<rect x="40.8015" y="6.87794" width="208.397" height="128.244" rx="8.81679" stroke="#374151" stroke-width="1.60305"/>
<path d="M200.765 101.029C200.812 100.654 200.859 100.279 201.117 99.9915C201.699 99.3463 202.656 99.3238 203.481 99.5113C204.733 99.7957 205.593 100.882 206.3 102.6C206.82 103.861 207.289 106.052 207.743 107.468C208.197 108.884 208.525 109.493 208.905 109.901C209.285 110.309 209.707 110.496 210.088 110.616C210.47 110.736 210.798 110.783 211.248 109.963C211.699 109.144 212.261 107.456 212.551 105.836C213.44 100.869 212.699 99.7997 212.84 99.4446C213.001 99.0365 214.161 99.4176 215.694 99.9816C216.666 100.339 217.836 101.296 219.378 102.785C220.921 104.275 222.749 106.385 223.972 107.425C225.195 108.465 225.758 108.371 226.095 108.252C226.569 108.085 226.763 107.801 226.905 107.613C227.147 107.294 226.903 104.745 227.001 100.984C227.041 99.4624 226.162 98.7697 225.378 98.4778C224.595 98.1858 223.704 98.3265 222.753 98.8443C221.801 99.3622 220.817 100.253 219.747 101.603C218.677 102.952 217.552 104.734 216.785 105.863C216.018 106.991 215.643 107.413 214.324 108.029C213.006 108.645 210.755 109.442 206.666 110.157C202.576 110.873 196.716 111.482 192.713 111.632C188.709 111.782 186.74 111.454 185.421 110.91C184.102 110.366 183.492 109.615 183.178 108.924C182.864 108.233 182.864 107.624 184.599 106.372C186.334 105.12 189.803 103.245 192.903 102.209C196.003 101.172 198.628 101.031 201.528 101.358C204.428 101.684 207.522 102.481 209.655 103.126C212.909 104.109 214.4 105.098 215.625 106.369C216.46 107.236 217.6 108.672 218.72 109.678C219.839 110.684 220.871 111.246 221.777 111.56C222.684 111.873 223.434 111.92 224.008 111.288C224.582 110.655 224.957 109.343 225.22 107.26C225.484 105.177 225.625 102.364 225.509 99.9304C225.394 97.4968 225.019 95.5277 225.693 95.9901C226.368 96.4526 228.102 99.4062 229.512 101.233C231.618 103.962 233.296 104.39 234.051 104.345C234.524 104.205 235.18 103.83 235.776 103.637C236.372 103.444 236.888 103.444 237.419 103.444" stroke="#D1D5DB" stroke-width="1.60305" stroke-linecap="round"/>
<path d="M273.652 31.1926L279.395 24.6389L261.506 7.97149L255.763 14.5252L273.652 31.1926Z" fill="#FDE68A"/>
<path d="M290.185 58.0048L289.038 49.9919L276.057 49.3201L277.204 57.3329L290.185 58.0048Z" fill="#FBBF24"/>
<path d="M19.6477 99.288L22.0222 96.5286L17.6835 92.5314L15.3091 95.2909L19.6477 99.288Z" fill="#FDE68A"/>
<path d="M19.6477 99.288L22.0222 96.5286L17.6835 92.5314L15.3091 95.2909L19.6477 99.288Z" fill="#FDE68A"/>
<path d="M17.4931 60.4268L18.8027 58.9048L16.4097 56.7002L15.1001 58.2222L17.4931 60.4268Z" fill="#FDE68A"/>
<path d="M15.3093 116.527L11.5676 110.982L2.90035 116.709L6.64208 122.254L15.3093 116.527Z" fill="#FDE68A"/>
<path d="M271.234 75.1138L269.061 70.0889L262.283 72.502L264.457 77.5269L271.234 75.1138Z" fill="#FDE68A"/>
<path d="M261.16 59.8852L260.205 57.6753L257.224 58.7365L258.18 60.9464L261.16 59.8852Z" fill="#FDE68A"/>
<path d="M270.54 118.295L266.366 114.677L259.914 122.07L264.088 125.688L270.54 118.295Z" fill="#FBBF24"/>
<path d="M286.895 109.076L290.832 103.918L276.059 91.1062L272.122 96.2638L286.895 109.076Z" fill="#FDE68A"/>
<path d="M26.3936 78.8586L32.7287 78.5227L28.8826 66.5035L22.5475 66.8394L26.3936 78.8586Z" fill="#FBBF24"/>
<path d="M25.2963 25.3145L18.8024 20.0618L11.0479 32.194L17.5417 37.4467L25.2963 25.3145Z" fill="#FDE68A"/>
<defs>
<clipPath id="clip0_68_7924">
<rect x="40" y="6.07642" width="210" height="129.847" rx="9.61832" fill="white"/>
</clipPath>
<clipPath id="clip1_68_7924">
<rect width="41.3812" height="41.3812" fill="white" transform="translate(52.8244 33.3281)"/>
</clipPath>
<clipPath id="clip2_68_7924">
<rect width="12.8244" height="12.8244" fill="white" transform="translate(67.1028 47.6067)"/>
</clipPath>
</defs>
</svg>
